<svg width="313" height="313" viewBox="0 0 313 313" fill="none" xmlns="http://www.w3.org/2000/svg">
<path d="M-346.473 256.747V153.617C-344.506 153.012 -342.54 152.559 -340.422 152.559C-331.196 152.559 -323.633 159.212 -322.271 168.134C-321.515 167.832 -320.607 167.68 -319.7 167.68C-315.767 167.68 -312.44 170.553 -311.532 174.183C-311.381 174.183 -311.078 174.183 -310.927 174.183C-302.759 174.183 -295.801 178.719 -292.171 185.524C-289.6 181.441 -285.062 178.719 -279.768 178.719C-278.104 178.719 -276.591 179.022 -275.079 179.475C-273.264 171.158 -265.852 164.958 -257.079 164.958C-256.171 164.958 -255.264 165.11 -254.356 165.261V165.11C-254.356 156.339 -247.247 149.081 -238.474 149.081C-231.97 149.081 -226.525 153.012 -223.953 158.607C-221.533 157.398 -218.811 156.641 -215.785 156.641C-205.651 156.641 -197.332 164.958 -197.332 175.241C-197.332 176.602 -197.483 178.114 -197.786 179.324C-193.248 180.383 -189.466 182.953 -186.744 186.582C-182.66 181.592 -176.609 178.568 -169.803 178.568C-158.61 178.568 -149.383 187.036 -148.022 197.924C-146.509 197.168 -144.845 196.714 -143.181 196.714C-137.131 196.714 -132.139 201.704 -132.139 207.753C-132.139 207.904 -132.139 208.206 -132.139 208.358C-131.081 206.846 -129.265 205.787 -127.299 205.787C-124.425 205.787 -122.156 207.753 -121.551 210.324C-121.249 210.021 -121.098 209.87 -120.795 209.567C-119.585 202.763 -113.686 197.621 -106.425 197.621C-100.526 197.621 -95.3836 201.251 -93.1148 206.392C-92.661 201.855 -89.0308 198.226 -84.3417 197.772C-85.4005 195.807 -85.8543 193.538 -85.8543 191.119C-85.8543 183.104 -79.5015 176.602 -71.636 176.3C-72.0898 174.636 -72.2411 172.973 -72.2411 171.158C-72.2411 158.91 -62.4092 148.929 -50.1573 148.929C-39.418 148.929 -30.4937 156.793 -28.5274 167.075C-27.4686 166.924 -26.2585 166.773 -25.0484 166.773C-23.0821 166.773 -21.267 167.075 -19.4518 167.529C-15.8217 163.749 -10.6789 161.329 -5.08231 161.329C5.95956 161.329 14.8839 170.402 14.8839 181.441V256.596L-346.473 256.747Z" fill="#E4F8EE"/>
<path d="M127.421 120.954L11.4056 303.625H264.764L148.748 120.954C143.454 112.637 132.715 112.637 127.421 120.954Z" fill="#00C853"/>
<path d="M196.697 260.376L140.58 246.011C136.344 244.952 134.076 239.811 135.588 235.123L143.302 212.441C145.117 206.997 142.697 200.948 137.857 199.285L115.168 191.421C111.689 190.212 109.723 185.978 110.631 181.744L135.134 115.057C132.109 115.813 129.387 117.779 127.269 120.954L11.2537 303.625H264.612L205.621 276.708C203.654 275.801 202.293 273.532 202.293 271.113V268.845C202.596 264.762 200.176 261.284 196.697 260.376Z" fill="#00B149"/>
<path d="M12.7663 161.178L-93.1146 303.625H138.008L32.1274 161.178C27.4384 154.676 17.6066 154.676 12.7663 161.178Z" fill="#00E792"/>
<path d="M75.9929 269.904L24.8676 258.714C21.0861 257.958 18.9685 253.875 20.3298 250.246L27.439 232.553C29.1028 228.319 26.8339 223.631 22.5987 222.27L9.74171 218.339C6.56528 217.431 4.75021 214.105 5.65775 210.778L20.0273 156.491C17.3047 157.096 14.7332 158.608 12.9181 161.027L-92.9628 303.474H138.16L84.3121 282.455C82.497 281.699 81.287 280.035 81.287 278.07V276.255C81.287 273.382 79.1694 270.66 75.9929 269.904Z" fill="#00C853"/>
<path d="M57.2362 303.776C57.2362 303.776 -77.5351 212.894 -170.71 212.894C-263.886 212.894 -365.834 303.776 -365.834 303.776H57.2362Z" fill="#00B149"/>
<path d="M15.2093 313H9.31018L9.91525 143.839H14.6042L15.2093 313Z" fill="#19185E"/>
<path d="M10.5203 140.362V104.069C10.5203 103.465 11.1253 102.86 11.7303 102.86H12.4866C13.2429 102.86 13.6967 103.313 13.9992 103.918L19.747 127.206C20.2008 129.02 19.747 131.137 18.5369 132.498L14.6042 137.035V139.454L10.5203 140.362Z" fill="#F27512"/>
<path d="M14.7553 140.664L47.5784 155.181C48.1835 155.483 48.486 156.088 48.1834 156.693L47.8809 157.298C47.5784 157.903 46.9734 158.205 46.2171 158.205L22.4695 154.122C20.5031 153.82 18.9905 152.61 18.083 150.795L15.5116 145.352L12.9402 144.142L14.7553 140.664Z" fill="#F27512"/>
<path d="M11.5789 144.747L-18.6728 162.742C-19.2779 163.044 -20.0341 162.893 -20.3367 162.288L-20.6392 161.683C-20.9417 161.078 -20.9417 160.322 -20.3367 159.869L-3.24446 142.932C-1.88313 141.571 0.0832291 140.966 2.04959 141.269L8.09993 142.327L10.3688 140.966L11.5789 144.747Z" fill="#F27512"/>
<path d="M16.1165 141.42C16.1165 143.235 14.6039 144.898 12.6375 144.898C10.8224 144.898 9.15857 143.386 9.15857 141.42C9.15857 139.605 10.6711 137.942 12.6375 137.942C14.4526 138.093 16.1165 139.605 16.1165 141.42Z" fill="#19185E"/>
<path d="M14.3013 141.42C14.3013 142.328 13.545 143.084 12.6375 143.084C11.7299 143.084 10.9736 142.328 10.9736 141.42C10.9736 140.513 11.7299 139.757 12.6375 139.757C13.545 139.757 14.3013 140.513 14.3013 141.42Z" fill="#E1E3F7"/>
<path d="M71.4543 303.776H66.009L66.6141 174.939H70.8493L71.4543 303.776Z" fill="#19185E"/>
<path d="M67.0682 171.612V137.891C67.0682 137.286 67.5219 136.832 68.127 136.832H68.8832C69.4883 136.832 70.0933 137.286 70.2446 137.891L75.6899 159.666C76.1437 161.48 75.6899 163.295 74.4798 164.656L70.8496 168.89V171.158L67.0682 171.612Z" fill="#F27512"/>
<path d="M71.1519 171.914L101.857 185.524C102.462 185.826 102.614 186.431 102.462 187.036L102.16 187.641C101.857 188.246 101.252 188.548 100.647 188.397L78.5636 184.465C76.7485 184.163 75.2359 182.953 74.4796 181.29L72.0595 176.148L69.6393 175.09L71.1519 171.914Z" fill="#F27512"/>
<path d="M67.9756 175.695L39.8416 192.48C39.3878 192.782 38.6315 192.631 38.329 192.026L38.0264 191.421C37.7239 190.817 37.7239 190.212 38.1777 189.758L54.0598 173.88C55.2699 172.67 57.2362 172.066 58.9001 172.368L64.4967 173.275L66.6143 172.066L67.9756 175.695Z" fill="#F27512"/>
<path d="M69.0344 175.846C70.7886 175.846 72.2108 174.424 72.2108 172.67C72.2108 170.917 70.7886 169.495 69.0344 169.495C67.2801 169.495 65.858 170.917 65.858 172.67C65.858 174.424 67.2801 175.846 69.0344 175.846Z" fill="#19185E"/>
<path d="M70.6985 172.671C70.6985 173.578 69.9422 174.184 69.1859 174.184C68.4295 174.184 67.6732 173.427 67.6732 172.671C67.6732 171.915 68.4295 171.158 69.1859 171.158C69.9422 171.158 70.6985 171.763 70.6985 172.671Z" fill="#E1E3F7"/>
<path d="M38.9341 303.776C15.3378 295.61 -6.29224 299.844 -31.8549 294.551C-55.905 289.259 -70.4258 285.327 -91.7533 285.327C-124.425 285.327 -138.795 291.981 -165.567 303.776C-165.719 303.776 32.43 303.927 38.9341 303.776Z" fill="#00C853"/>
<path d="M245.829 304.09C245.829 304.09 255.812 297.285 269.274 297.285C282.736 297.285 295.744 304.09 295.744 304.09H245.829Z" fill="#00E792"/>
<path d="M218.327 291.981C218.024 291.981 217.722 291.678 217.722 291.376C217.722 291.074 218.024 290.771 218.327 290.771C221.201 290.771 223.469 288.503 223.469 285.63V276.859C223.469 276.557 223.772 276.254 224.074 276.254C224.377 276.254 224.68 276.557 224.68 276.859V285.63C224.528 289.108 221.654 291.981 218.327 291.981Z" fill="#144F33"/>
<path d="M218.327 293.947C214.848 293.947 212.125 291.225 212.125 287.747V278.976C212.125 278.674 212.428 278.371 212.73 278.371C213.033 278.371 213.335 278.674 213.335 278.976V287.747C213.335 290.62 215.604 292.888 218.478 292.888C218.781 292.888 219.083 293.191 219.083 293.493C219.083 293.795 218.629 293.947 218.327 293.947Z" fill="#144F33"/>
<path d="M218.327 304.532C218.024 304.532 217.722 304.229 217.722 303.927V279.279C217.722 278.976 218.024 278.674 218.327 278.674C218.629 278.674 218.932 278.976 218.932 279.279V303.927C218.78 304.381 218.629 304.532 218.327 304.532Z" fill="#144F33"/>
<path d="M197.604 268.24C197.604 279.581 206.831 288.956 218.327 288.956C229.671 288.956 239.049 279.732 239.049 268.24C239.049 256.747 229.822 226.201 218.327 226.201C206.831 226.201 197.604 256.747 197.604 268.24Z" fill="#039B41"/>
<path d="M218.327 280.488C218.024 280.488 217.722 280.186 217.722 279.883V239.206C217.722 238.904 218.024 238.601 218.327 238.601C218.629 238.601 218.932 238.904 218.932 239.206V279.883C218.78 280.186 218.629 280.488 218.327 280.488Z" fill="#144F33"/>
<path d="M218.327 275.044C213.184 275.044 208.949 270.81 208.949 265.669C208.949 265.367 209.251 265.064 209.554 265.064C209.856 265.064 210.159 265.367 210.159 265.669C210.159 270.206 213.789 273.835 218.327 273.835C218.629 273.835 218.932 274.137 218.932 274.44C218.781 274.742 218.629 275.044 218.327 275.044Z" fill="#144F33"/>
<path d="M218.327 251.908C218.024 251.908 217.722 251.606 217.722 251.303C217.722 251.001 218.024 250.698 218.327 250.698C220.596 250.698 222.259 248.884 222.259 246.767C222.259 246.464 222.562 246.162 222.864 246.162C223.167 246.162 223.469 246.464 223.469 246.767C223.469 249.64 221.049 251.908 218.327 251.908Z" fill="#144F33"/>
<path d="M247.217 297.727C246.915 297.727 246.612 297.425 246.612 297.122C246.612 296.82 246.915 296.517 247.217 296.517C250.091 296.517 252.36 294.249 252.36 291.376V282.605C252.36 282.303 252.662 282 252.965 282C253.267 282 253.57 282.303 253.57 282.605V291.376C253.419 295.005 250.696 297.727 247.217 297.727Z" fill="#144F33"/>
<path d="M247.217 293.493C243.738 293.493 241.015 290.771 241.015 287.293V278.523C241.015 278.22 241.318 277.918 241.62 277.918C241.923 277.918 242.225 278.22 242.225 278.523V287.293C242.225 290.166 244.494 292.435 247.368 292.435C247.671 292.435 247.973 292.737 247.973 293.039C247.973 293.342 247.519 293.493 247.217 293.493Z" fill="#144F33"/>
<path d="M247.217 304.532C246.915 304.532 246.612 304.229 246.612 303.927V279.279C246.612 278.976 246.915 278.674 247.217 278.674C247.52 278.674 247.822 278.976 247.822 279.279V303.927C247.822 304.381 247.52 304.532 247.217 304.532Z" fill="#144F33"/>
<path d="M247.217 288.956C258.661 288.956 267.939 279.681 267.939 268.24C267.939 256.798 258.661 247.523 247.217 247.523C235.772 247.523 226.494 256.798 226.494 268.24C226.494 279.681 235.772 288.956 247.217 288.956Z" fill="#00B149"/>
<path d="M247.217 280.488C246.915 280.488 246.612 280.186 246.612 279.883V261.133C246.612 260.83 246.915 260.528 247.217 260.528C247.52 260.528 247.822 260.83 247.822 261.133V279.883C247.822 280.186 247.52 280.488 247.217 280.488Z" fill="#144F33"/>
<path d="M247.217 275.045C243.738 275.045 241.015 272.323 241.015 268.845C241.015 268.542 241.318 268.24 241.62 268.24C241.923 268.24 242.225 268.542 242.225 268.845C242.225 271.718 244.494 273.986 247.368 273.986C247.671 273.986 247.973 274.288 247.973 274.591C247.822 274.742 247.519 275.045 247.217 275.045Z" fill="#144F33"/>
<path d="M247.217 266.274C246.915 266.274 246.612 265.972 246.612 265.669C246.612 265.367 246.915 265.064 247.217 265.064C249.486 265.064 251.15 263.25 251.15 261.133C251.15 260.83 251.452 260.528 251.755 260.528C252.057 260.528 252.36 260.83 252.36 261.133C252.36 264.006 250.091 266.274 247.217 266.274Z" fill="#144F33"/>
<path d="M193.672 299.542C191.1 299.542 189.134 297.425 189.134 295.005V288.805C189.134 288.503 189.436 288.2 189.739 288.2C190.041 288.2 190.344 288.503 190.344 288.805V295.005C190.344 296.971 191.857 298.483 193.823 298.483C194.125 298.483 194.428 298.786 194.428 299.088C194.428 299.39 193.974 299.542 193.672 299.542Z" fill="#144F33"/>
<path d="M193.672 296.366C193.369 296.366 193.067 296.064 193.067 295.761C193.067 295.459 193.369 295.156 193.672 295.156C195.638 295.156 197.151 293.644 197.151 291.678V285.478C197.151 285.176 197.453 284.874 197.756 284.874C198.058 284.874 198.361 285.176 198.361 285.478V291.678C198.209 294.4 196.243 296.366 193.672 296.366Z" fill="#144F33"/>
<path d="M193.672 304.381C193.369 304.381 193.067 304.078 193.067 303.776V286.235C193.067 285.932 193.369 285.63 193.672 285.63C193.974 285.63 194.277 285.932 194.277 286.235V303.776C194.277 304.229 193.974 304.381 193.672 304.381Z" fill="#144F33"/>
<path d="M204.142 288.677C209.931 282.89 209.931 273.507 204.142 267.72C198.354 261.933 188.968 261.933 183.179 267.72C177.391 273.507 177.39 282.89 183.179 288.677C188.968 294.465 198.354 294.464 204.142 288.677Z" fill="#00C853"/>
<path d="M193.672 287.142C193.369 287.142 193.067 286.84 193.067 286.537V273.079C193.067 272.776 193.369 272.474 193.672 272.474C193.974 272.474 194.277 272.776 194.277 273.079V286.537C194.277 286.991 193.974 287.142 193.672 287.142Z" fill="#144F33"/>
<path d="M193.672 283.21C193.369 283.21 193.067 282.908 193.067 282.605C193.067 282.303 193.369 282.001 193.672 282.001C195.638 282.001 197.151 280.488 197.151 278.523C197.151 278.22 197.453 277.918 197.756 277.918C198.058 277.918 198.361 278.22 198.361 278.523C198.209 281.244 196.243 283.21 193.672 283.21Z" fill="#144F33"/>
<path d="M193.672 277.01C191.554 277.01 189.89 275.347 189.89 273.23C189.89 272.928 190.193 272.625 190.495 272.625C190.798 272.625 191.1 272.928 191.1 273.23C191.1 274.742 192.31 275.952 193.823 275.952C194.125 275.952 194.428 276.254 194.428 276.557C194.277 276.708 193.974 277.01 193.672 277.01Z" fill="#144F33"/>
<path d="M1.8089 292.487H-0.762451V303.829H1.8089V292.487Z" fill="#363B9D"/>
<path d="M-22.5436 297.175H17.9937C19.355 297.175 20.7163 296.117 21.0188 294.756L28.4305 265.42C28.733 264.059 27.9767 263 26.6154 263H-14.5269C-15.8883 263 -17.2496 264.059 -17.5521 265.42L-24.51 294.756C-24.6613 296.117 -23.905 297.175 -22.5436 297.175Z" fill="#363B9D"/>
<path d="M-24.0562 297.175H16.481C17.8424 297.175 19.2037 296.117 19.5062 294.756L26.9179 265.419C27.2204 264.059 26.4641 263 25.1028 263H-16.0395C-17.4009 263 -18.7622 264.059 -19.0647 265.419L-26.0226 294.756C-26.1739 296.117 -25.4175 297.175 -24.0562 297.175Z" fill="white"/>
<path d="M10.128 274.191H4.22898C3.92647 274.191 3.62395 274.04 3.47269 273.737C3.47269 273.586 3.32143 273.586 3.32143 273.586C3.17017 273.435 3.01895 273.132 3.1702 272.83L4.83401 266.328C4.98527 266.025 5.28778 265.723 5.5903 265.723H12.5482C13.1532 265.723 13.4557 266.176 13.3045 266.781L11.7919 273.132C11.7919 273.284 11.6407 273.586 11.3381 273.586C11.1869 273.737 10.8844 273.888 10.7331 274.04C10.5819 274.191 10.2793 274.191 10.128 274.191Z" fill="#19185E"/>
<path d="M-0.157448 274.191H-6.20775C-6.51027 274.191 -6.81278 274.04 -6.96404 273.737L-7.11531 273.586C-7.26656 273.435 -7.41783 273.132 -7.26657 272.83L-5.60273 266.176C-5.45147 265.874 -5.14896 265.571 -4.84644 265.571H2.11142C2.71645 265.571 3.01896 266.025 2.8677 266.63L1.35513 272.981C1.35513 273.132 1.20389 273.435 0.901374 273.435C0.750116 273.586 0.447564 273.737 0.296307 273.888C0.296307 274.191 -0.0061903 274.191 -0.157448 274.191Z" fill="#19185E"/>
<path d="M20.4138 274.191H14.5147C14.2122 274.191 13.9097 274.04 13.7584 273.737C13.7584 273.586 13.6072 273.586 13.6072 273.586C13.4559 273.435 13.3046 273.132 13.4559 272.83L15.1198 266.328C15.271 266.025 15.5735 265.723 15.8761 265.723H22.834C23.439 265.723 23.7416 266.176 23.5903 266.781L22.0777 273.132C22.0777 273.284 21.9264 273.586 21.6239 273.586C21.4726 273.737 21.1701 273.888 21.0189 274.04C20.8676 274.191 20.5651 274.191 20.4138 274.191Z" fill="#19185E"/>
<path d="M14.0609 275.853H19.6576C19.9601 275.853 20.2626 276.005 20.4139 276.307C20.4139 276.458 20.5651 276.458 20.5651 276.61C20.7164 276.761 20.8676 277.063 20.8676 277.366L19.5063 283.112C19.5063 283.414 19.355 283.566 19.0525 283.717C18.9013 283.868 18.5987 284.019 18.4475 284.17C18.2962 284.322 17.9937 284.473 17.8424 284.473H11.9433C11.6408 284.473 11.3383 284.322 11.187 284.019C11.187 283.868 11.0358 283.868 11.0358 283.717C10.8845 283.566 10.7332 283.263 10.8845 282.961L12.2459 277.214C12.2459 276.912 12.3971 276.761 12.6996 276.61C13.0021 276.458 13.1534 276.307 13.3046 276.156C13.4559 276.005 13.7584 275.853 14.0609 275.853Z" fill="#19185E"/>
<path d="M-6.66145 275.853H-0.913659C-0.611143 275.853 -0.308627 276.005 -0.157369 276.307C-0.157369 276.458 -0.00610161 276.458 -0.00610161 276.61C0.145156 276.761 0.296387 277.063 0.296387 277.366L-1.06493 283.112C-1.06493 283.414 -1.21617 283.566 -1.51868 283.717C-1.66994 283.868 -1.97245 284.019 -2.12371 284.17C-2.27496 284.322 -2.57752 284.473 -2.72877 284.473H-8.62783C-8.93034 284.473 -9.23286 284.322 -9.38412 284.019C-9.38412 283.868 -9.53539 283.868 -9.53539 283.717C-9.68664 283.566 -9.83786 283.263 -9.68661 282.961L-8.32529 277.214C-8.32529 276.912 -8.17405 276.761 -7.87154 276.61C-7.72028 276.458 -7.41777 276.307 -7.26652 276.156C-7.11526 276.005 -6.8127 275.853 -6.66145 275.853Z" fill="#19185E"/>
<path d="M3.77537 275.853H9.52318C9.8257 275.853 10.1282 276.005 10.2795 276.307C10.2795 276.458 10.4307 276.458 10.4307 276.61C10.582 276.761 10.7333 277.063 10.7333 277.366L9.37191 283.112C9.37191 283.414 9.22067 283.566 8.91815 283.717C8.7669 283.868 8.46439 284.019 8.31313 284.17C8.16187 284.322 7.85936 284.473 7.7081 284.473H1.96025C1.65773 284.473 1.35522 284.322 1.20396 284.019C1.20396 283.868 1.05269 283.868 1.05269 283.717C0.90143 283.566 0.750209 283.263 0.901467 282.961L2.26279 277.214C2.26279 276.912 2.41403 276.761 2.71654 276.61C3.01906 276.458 3.17031 276.307 3.32157 276.156C3.32157 276.005 3.47285 275.853 3.77537 275.853Z" fill="#19185E"/>
<path d="M1.20374 286.136H6.95162C7.25414 286.136 7.55666 286.288 7.70792 286.59C7.70792 286.741 7.85914 286.741 7.85914 286.892C8.0104 287.044 8.16167 287.346 8.01041 287.648L6.49782 294C6.34656 294.302 6.04404 294.604 5.74152 294.604H-1.06514C-1.67018 294.604 -1.9727 294.151 -1.82144 293.546L-0.308848 287.346C-0.308848 287.044 -0.157561 286.892 0.144958 286.741C0.296217 286.59 0.598726 286.439 0.749985 286.287C0.749985 286.287 0.901226 286.136 1.20374 286.136Z" fill="#19185E"/>
<path d="M11.4894 286.136H17.2372C17.5397 286.136 17.8423 286.288 17.9935 286.59C17.9935 286.741 18.1448 286.741 18.1448 286.892C18.296 287.044 18.4473 287.346 18.2961 287.648L16.6322 294C16.4809 294.302 16.1784 294.604 15.8759 294.604H9.06925C8.46422 294.604 8.1617 294.151 8.31296 293.546L9.82555 287.346C9.82555 287.044 9.97679 286.892 10.2793 286.741C10.4306 286.59 10.7331 286.439 10.8843 286.287C11.0356 286.287 11.1869 286.136 11.4894 286.136Z" fill="#19185E"/>
<path d="M12.8508 302.619H-11.8044V303.829H12.8508V302.619Z" fill="#363B9D"/>
<path d="M57.085 293.948H24.7158V295.46H57.085V293.948Z" fill="#F9E6CD"/>
<path d="M57.085 300.147H24.7157V301.659H57.085V300.147Z" fill="#F9E6CD"/>
<path d="M27.5895 303.625H25.9256C25.6231 303.625 25.3206 303.322 25.3206 303.02V292.132C25.3206 291.981 25.3206 291.981 25.4719 291.83L26.3794 290.469C26.5307 290.166 27.1357 290.166 27.287 290.469L28.1946 291.83C28.1946 291.981 28.3458 291.981 28.3458 292.132V303.02C28.1946 303.322 27.892 303.625 27.5895 303.625Z" fill="white"/>
<path d="M32.2787 303.625H30.6148C30.3123 303.625 30.0098 303.322 30.0098 303.02V292.132C30.0098 291.981 30.0097 291.981 30.161 291.83L31.0686 290.469C31.2198 290.166 31.8249 290.166 31.9762 290.469L32.8838 291.83C32.8838 291.981 33.035 291.981 33.035 292.132V303.02C32.8838 303.322 32.5812 303.625 32.2787 303.625Z" fill="white"/>
<path d="M36.9676 303.625H35.3038C35.0013 303.625 34.6987 303.322 34.6987 303.02V292.132C34.6987 291.981 34.6987 291.981 34.85 291.83L35.7576 290.469C35.9088 290.166 36.5139 290.166 36.6651 290.469L37.5727 291.83C37.5727 291.981 37.7239 291.981 37.7239 292.132V303.02C37.5727 303.322 37.2702 303.625 36.9676 303.625Z" fill="white"/>
<path d="M41.6567 303.625H39.9929C39.6904 303.625 39.3879 303.322 39.3879 303.02V292.132C39.3879 291.981 39.3879 291.981 39.5391 291.83L40.4467 290.469C40.598 290.166 41.203 290.166 41.3543 290.469L42.2618 291.83C42.2618 291.981 42.413 291.981 42.413 292.132V303.02C42.2618 303.322 41.9593 303.625 41.6567 303.625Z" fill="white"/>
<path d="M46.3456 303.625H44.6818C44.3793 303.625 44.0768 303.322 44.0768 303.02V292.132C44.0768 291.981 44.0768 291.981 44.228 291.83L45.1356 290.469C45.2869 290.166 45.8919 290.166 46.0431 290.469L46.9507 291.83C46.9507 291.981 47.1019 291.981 47.1019 292.132V303.02C46.9507 303.322 46.6482 303.625 46.3456 303.625Z" fill="white"/>
<path d="M51.0345 303.625H49.3707C49.0682 303.625 48.7657 303.322 48.7657 303.02V292.132C48.7657 291.981 48.7657 291.981 48.917 291.83L49.8245 290.469C49.9757 290.166 50.5808 290.166 50.732 290.469L51.6396 291.83C51.6396 291.981 51.7908 291.981 51.7908 292.132V303.02C51.4883 303.322 51.3371 303.625 51.0345 303.625Z" fill="white"/>
<path d="M55.7237 303.625H54.0599C53.7574 303.625 53.4549 303.322 53.4549 303.02V292.132C53.4549 291.981 53.4549 291.981 53.6061 291.83L54.5136 290.469C54.6649 290.166 55.2699 290.166 55.4212 290.469L56.3287 291.83C56.3287 291.981 56.48 291.981 56.48 292.132V303.02C56.1775 303.322 56.0262 303.625 55.7237 303.625Z" fill="white"/>
<path d="M62.8329 250.094H140.428C140.882 250.094 141.034 250.699 140.731 251.001L125.151 264.308C124.698 264.611 124.244 264.762 123.79 264.762H47.102C46.497 264.762 46.1945 264.006 46.6482 263.552L61.9253 250.547C62.2278 250.245 62.2278 250.094 62.8329 250.094Z" fill="#19185E"/>
<path d="M47.8581 304.23H78.5635V264.762L63.2865 251.606L47.8581 264.762V304.23Z" fill="white"/>
<path d="M78.4908 304.182H155.482V264.714H78.4908V304.182Z" fill="#DFDFDF"/>
<path d="M139.824 250.094H62.6817C62.2279 250.094 62.0767 250.699 62.3792 251.001L77.9588 264.308C78.4126 264.611 78.8663 264.762 79.3201 264.762H156.008C156.613 264.762 156.916 264.006 156.462 263.552L141.185 250.547C140.882 250.245 140.277 250.094 139.824 250.094Z" fill="#19185E"/>
<path d="M120.462 252.514C119.857 252.06 119.101 251.758 118.345 251.758H116.227H91.1182C90.6645 251.758 90.5132 252.362 90.8157 252.665L101.706 262.192C102.311 262.645 103.068 262.948 103.824 262.948H130.748C131.353 262.948 131.656 262.192 131.202 261.889L120.462 252.514Z" fill="white"/>
<path d="M99.4373 254.935L96.8659 252.817C96.7147 252.666 96.5634 252.666 96.4122 252.666H95.9584H92.6307C92.4795 252.666 92.4795 252.817 92.6307 252.817L95.2021 255.086C95.3533 255.237 95.5046 255.237 95.6559 255.237H96.1096H99.4373C99.4373 255.086 99.4373 254.935 99.4373 254.935Z" fill="#19185E"/>
<path d="M100.647 254.934C100.798 255.085 100.95 255.085 101.101 255.085H101.555H104.882C105.034 255.085 105.034 254.934 105.034 254.783L102.462 252.665C102.311 252.514 102.16 252.514 102.009 252.514H101.555H98.227C98.0758 252.514 98.0758 252.665 98.227 252.665L100.647 254.934Z" fill="#19185E"/>
<path d="M106.244 254.934C106.395 255.085 106.546 255.085 106.698 255.085H107.151H110.479C110.63 255.085 110.63 254.934 110.63 254.783L108.059 252.665C107.908 252.514 107.756 252.514 107.605 252.514H107.151H103.824C103.673 252.514 103.673 252.665 103.824 252.665L106.244 254.934Z" fill="#19185E"/>
<path d="M111.84 254.934C111.992 255.085 112.143 255.085 112.294 255.085H112.748H116.076C116.227 255.085 116.227 254.934 116.227 254.783L113.656 252.665C113.504 252.514 113.353 252.514 113.202 252.514H112.748H109.42C109.269 252.514 109.269 252.665 109.42 252.665L111.84 254.934Z" fill="#19185E"/>
<path d="M117.437 254.934C117.588 255.085 117.74 255.085 117.891 255.085H118.345H121.672C121.824 255.085 121.824 254.934 121.824 254.783L119.252 252.665C119.101 252.514 118.95 252.514 118.798 252.514H118.345H115.017C114.866 252.514 114.866 252.665 115.017 252.665L117.437 254.934Z" fill="#19185E"/>
<path d="M103.37 258.26L100.799 256.143C100.647 255.991 100.496 255.991 100.345 255.991H99.8911H96.5635C96.4122 255.991 96.4122 256.143 96.5635 256.143L99.1348 258.411C99.2861 258.563 99.4373 258.563 99.5886 258.563H100.042H103.37C103.37 258.411 103.521 258.26 103.37 258.26Z" fill="#19185E"/>
<path d="M105.941 255.991H105.488H102.16C102.009 255.991 102.009 256.143 102.16 256.143L104.731 258.411C104.883 258.563 105.034 258.563 105.185 258.563H105.639H108.967C109.118 258.563 109.118 258.411 109.118 258.26L106.546 256.143C106.244 255.991 106.093 255.991 105.941 255.991Z" fill="#19185E"/>
<path d="M110.63 258.411H111.084H114.412C114.563 258.411 114.563 258.26 114.563 258.109L111.992 255.991C111.84 255.84 111.689 255.84 111.538 255.84H111.084H107.757C107.605 255.84 107.605 255.991 107.757 255.991L110.328 258.26C110.328 258.411 110.479 258.411 110.63 258.411Z" fill="#19185E"/>
<path d="M116.227 258.411H116.681H120.008C120.16 258.411 120.16 258.26 120.16 258.109L117.588 255.991C117.437 255.84 117.286 255.84 117.134 255.84H116.681H113.353C113.202 255.84 113.202 255.991 113.353 255.991L115.924 258.26C115.924 258.411 116.076 258.411 116.227 258.411Z" fill="#19185E"/>
<path d="M118.798 256.143L121.37 258.411C121.521 258.563 121.672 258.563 121.823 258.563H122.277H125.605C125.756 258.563 125.756 258.411 125.756 258.26L123.185 256.143C123.033 255.991 122.882 255.991 122.731 255.991H122.277H118.949C118.798 255.991 118.798 255.991 118.798 256.143Z" fill="#19185E"/>
<path d="M104.731 259.469C104.58 259.318 104.429 259.318 104.277 259.318H103.824H100.496C100.345 259.318 100.345 259.469 100.496 259.469L103.067 261.738C103.219 261.889 103.37 261.889 103.521 261.889H103.975H107.303C107.454 261.889 107.454 261.738 107.454 261.587L104.731 259.469Z" fill="#19185E"/>
<path d="M110.328 259.469C110.177 259.318 110.025 259.318 109.874 259.318H109.42H106.093C105.941 259.318 105.941 259.469 106.093 259.469L108.664 261.738C108.815 261.889 108.966 261.889 109.118 261.889H109.572H112.899C113.05 261.889 113.05 261.738 113.05 261.587L110.328 259.469Z" fill="#19185E"/>
<path d="M115.925 259.469C115.773 259.318 115.622 259.318 115.471 259.318H115.017H111.689C111.538 259.318 111.538 259.469 111.689 259.469L114.261 261.738C114.412 261.889 114.563 261.889 114.715 261.889H115.168H118.496C118.647 261.889 118.647 261.738 118.647 261.587L115.925 259.469Z" fill="#19185E"/>
<path d="M121.521 259.469C121.37 259.318 121.218 259.318 121.067 259.318H120.613H117.286C117.134 259.318 117.134 259.469 117.286 259.469L119.857 261.738C120.008 261.889 120.16 261.889 120.311 261.889H120.765H124.092C124.244 261.889 124.244 261.738 124.244 261.587L121.521 259.469Z" fill="#19185E"/>
<path d="M129.689 261.587L127.118 259.469C126.966 259.318 126.815 259.318 126.664 259.318H126.21H122.882C122.731 259.318 122.731 259.469 122.882 259.469L125.454 261.738C125.605 261.889 125.756 261.889 125.907 261.889H126.361H129.689C129.689 261.889 129.689 261.738 129.689 261.587Z" fill="#19185E"/>
<path d="M70.0934 277.918H56.3289V303.625H70.0934V277.918Z" fill="#363B9D"/>
<path d="M92.6306 271.567H84.1602V275.649H92.6306V271.567Z" fill="#363B9D"/>
<path d="M107 271.567H98.5298V275.649H107V271.567Z" fill="#363B9D"/>
<path d="M121.218 271.567H112.748V275.649H121.218V271.567Z" fill="#363B9D"/>
<path d="M135.588 271.567H127.118V275.649H135.588V271.567Z" fill="#363B9D"/>
<path d="M149.958 271.567H141.487V275.649H149.958V271.567Z" fill="#363B9D"/>
<path d="M176.579 293.948H88.0931V295.46H176.579V293.948Z" fill="#F9E6CD"/>
<path d="M176.579 300.147H88.0931V301.659H176.579V300.147Z" fill="#F9E6CD"/>
<path d="M90.9671 303.625H89.3033C89.0008 303.625 88.6982 303.322 88.6982 303.02V292.132C88.6982 291.981 88.6983 291.981 88.8495 291.83L89.7571 290.469C89.9083 290.166 90.5133 290.166 90.6646 290.469L91.5722 291.83C91.5722 291.981 91.7234 291.981 91.7234 292.132V303.02C91.5722 303.322 91.2697 303.625 90.9671 303.625Z" fill="white"/>
<path d="M95.6562 303.625H93.9924C93.6899 303.625 93.3874 303.322 93.3874 303.02V292.132C93.3874 291.981 93.3874 291.981 93.5387 291.83L94.4462 290.469C94.5974 290.166 95.2025 290.166 95.3537 290.469L96.2613 291.83C96.2613 291.981 96.4125 291.981 96.4125 292.132V303.02C96.2613 303.322 95.9588 303.625 95.6562 303.625Z" fill="white"/>
<path d="M100.345 303.625H98.6813C98.3788 303.625 98.0763 303.322 98.0763 303.02V292.132C98.0763 291.981 98.0763 291.981 98.2275 291.83L99.1351 290.469C99.2863 290.166 99.8914 290.166 100.043 290.469L100.95 291.83C100.95 291.981 101.101 291.981 101.101 292.132V303.02C100.95 303.322 100.648 303.625 100.345 303.625Z" fill="white"/>
<path d="M105.034 303.625H103.37C103.068 303.625 102.765 303.322 102.765 303.02V292.132C102.765 291.981 102.765 291.981 102.917 291.83L103.824 290.469C103.975 290.166 104.58 290.166 104.732 290.469L105.639 291.83C105.639 291.981 105.79 291.981 105.79 292.132V303.02C105.639 303.322 105.337 303.625 105.034 303.625Z" fill="white"/>
<path d="M109.723 303.625H108.059C107.757 303.625 107.454 303.322 107.454 303.02V292.132C107.454 291.981 107.454 291.981 107.606 291.83L108.513 290.469C108.665 290.166 109.27 290.166 109.421 290.469L110.328 291.83C110.328 291.981 110.48 291.981 110.48 292.132V303.02C110.177 303.322 110.026 303.625 109.723 303.625Z" fill="white"/>
<path d="M114.412 303.625H112.748C112.446 303.625 112.143 303.322 112.143 303.02V292.132C112.143 291.981 112.143 291.981 112.294 291.83L113.202 290.469C113.353 290.166 113.958 290.166 114.109 290.469L115.017 291.83C115.017 291.981 115.168 291.981 115.168 292.132V303.02C114.866 303.322 114.714 303.625 114.412 303.625Z" fill="white"/>
<path d="M119.101 303.625H117.437C117.135 303.625 116.832 303.322 116.832 303.02V292.132C116.832 291.981 116.832 291.981 116.984 291.83L117.891 290.469C118.042 290.166 118.647 290.166 118.799 290.469L119.706 291.83C119.706 291.981 119.857 291.981 119.857 292.132V303.02C119.555 303.322 119.404 303.625 119.101 303.625Z" fill="white"/>
<path d="M123.79 303.625H122.126C121.824 303.625 121.521 303.322 121.521 303.02V292.132C121.521 291.981 121.521 291.981 121.673 291.83L122.58 290.469C122.732 290.166 123.336 290.166 123.488 290.469L124.395 291.83C124.395 291.981 124.547 291.981 124.547 292.132V303.02C124.244 303.322 124.093 303.625 123.79 303.625Z" fill="white"/>
<path d="M128.479 303.625H126.815C126.513 303.625 126.21 303.322 126.21 303.02V292.132C126.21 291.981 126.21 291.981 126.362 291.83L127.269 290.469C127.42 290.166 128.025 290.166 128.177 290.469L129.084 291.83C129.084 291.981 129.236 291.981 129.236 292.132V303.02C128.933 303.322 128.782 303.625 128.479 303.625Z" fill="white"/>
<path d="M133.168 303.625H131.504C131.202 303.625 130.899 303.322 130.899 303.02V292.132C130.899 291.981 130.899 291.981 131.05 291.83L131.958 290.469C132.109 290.166 132.714 290.166 132.866 290.469L133.773 291.83C133.773 291.981 133.924 291.981 133.924 292.132V303.02C133.622 303.322 133.471 303.625 133.168 303.625Z" fill="white"/>
<path d="M137.857 303.625H136.193C135.891 303.625 135.588 303.322 135.588 303.02V292.132C135.588 291.981 135.588 291.981 135.739 291.83L136.647 290.469C136.798 290.166 137.403 290.166 137.555 290.469L138.462 291.83C138.462 291.981 138.613 291.981 138.613 292.132V303.02C138.311 303.322 138.16 303.625 137.857 303.625Z" fill="white"/>
<path d="M142.546 303.625H140.882C140.58 303.625 140.277 303.322 140.277 303.02V292.132C140.277 291.981 140.277 291.981 140.429 291.83L141.336 290.469C141.487 290.166 142.093 290.166 142.244 290.469L143.151 291.83C143.151 291.981 143.302 291.981 143.302 292.132V303.02C143 303.322 142.697 303.625 142.546 303.625Z" fill="white"/>
<path d="M147.084 303.625H145.42C145.118 303.625 144.815 303.322 144.815 303.02V292.132C144.815 291.981 144.815 291.981 144.966 291.83L145.874 290.469C146.025 290.166 146.63 290.166 146.782 290.469L147.689 291.83C147.689 291.981 147.84 291.981 147.84 292.132V303.02C147.689 303.322 147.387 303.625 147.084 303.625Z" fill="white"/>
<path d="M151.773 303.625H150.109C149.807 303.625 149.504 303.322 149.504 303.02V292.132C149.504 291.981 149.504 291.981 149.655 291.83L150.563 290.469C150.714 290.166 151.319 290.166 151.471 290.469L152.378 291.83C152.378 291.981 152.529 291.981 152.529 292.132V303.02C152.378 303.322 152.076 303.625 151.773 303.625Z" fill="white"/>
<path d="M156.462 303.625H154.798C154.496 303.625 154.193 303.322 154.193 303.02V292.132C154.193 291.981 154.193 291.981 154.344 291.83L155.252 290.469C155.403 290.166 156.008 290.166 156.159 290.469L157.067 291.83C157.067 291.981 157.218 291.981 157.218 292.132V303.02C157.067 303.322 156.764 303.625 156.462 303.625Z" fill="white"/>
<path d="M161.151 303.625H159.487C159.185 303.625 158.882 303.322 158.882 303.02V292.132C158.882 291.981 158.882 291.981 159.033 291.83L159.941 290.469C160.092 290.166 160.697 290.166 160.848 290.469L161.756 291.83C161.756 291.981 161.907 291.981 161.907 292.132V303.02C161.756 303.322 161.453 303.625 161.151 303.625Z" fill="white"/>
<path d="M161.151 303.625H159.487C159.185 303.625 158.882 303.322 158.882 303.02V292.132C158.882 291.981 158.882 291.981 159.033 291.83L159.941 290.469C160.092 290.166 160.697 290.166 160.848 290.469L161.756 291.83C161.756 291.981 161.907 291.981 161.907 292.132V303.02C161.756 303.322 161.453 303.625 161.151 303.625Z" fill="white"/>
<path d="M165.84 303.625H164.176C163.874 303.625 163.571 303.322 163.571 303.02V292.132C163.571 291.981 163.571 291.981 163.722 291.83L164.63 290.469C164.781 290.166 165.386 290.166 165.537 290.469L166.445 291.83C166.445 291.981 166.596 291.981 166.596 292.132V303.02C166.445 303.322 166.142 303.625 165.84 303.625Z" fill="white"/>
<path d="M170.529 303.625H168.865C168.563 303.625 168.26 303.322 168.26 303.02V292.132C168.26 291.981 168.26 291.981 168.412 291.83L169.319 290.469C169.47 290.166 170.075 290.166 170.227 290.469L171.134 291.83C171.134 291.981 171.285 291.981 171.285 292.132V303.02C171.134 303.322 170.832 303.625 170.529 303.625Z" fill="white"/>
<path d="M175.218 303.625H173.554C173.252 303.625 172.949 303.322 172.949 303.02V292.132C172.949 291.981 172.949 291.981 173.1 291.83L174.008 290.469C174.159 290.166 174.764 290.166 174.915 290.469L175.823 291.83C175.823 291.981 175.974 291.981 175.974 292.132V303.02C175.823 303.322 175.521 303.625 175.218 303.625Z" fill="white"/>
<path d="M307.337 313H-682.498C-685.241 313 -687.5 310.883 -687.5 308.312C-687.5 305.742 -685.241 303.624 -682.498 303.624H307.498C310.241 303.624 312.5 305.742 312.5 308.312C312.339 310.883 310.08 313 307.337 313Z" fill="#00A056"/>
<path d="M147.449 116.226C150.02 116.226 152.44 117.587 153.802 119.553C155.012 113.958 159.852 109.875 165.751 109.875C171.801 109.875 176.944 114.412 177.7 120.158C179.062 119.099 180.726 118.494 182.541 118.494C186.02 118.494 189.045 120.763 189.952 123.938H155.163H153.65H139.583C139.735 119.704 143.214 116.226 147.449 116.226Z" fill="#E4F8EE"/>
<path d="M187.294 55.1371C193.356 55.1371 199.062 58.3629 202.271 63.0224C205.124 49.7608 216.535 40.0833 230.443 40.0833C244.707 40.0833 256.832 50.836 258.615 64.4561C261.824 61.9471 265.747 60.5134 270.026 60.5134C278.228 60.5134 285.36 65.8898 287.5 73.4167H205.48H201.914H168.75C169.107 63.3808 177.309 55.1371 187.294 55.1371Z" fill="#E4F8EE"/>
<path d="M85.9904 137.059C88.5618 137.059 90.982 138.42 92.3433 140.386C93.5534 134.791 98.3936 130.708 104.293 130.708C110.343 130.708 115.486 135.245 116.242 140.991C117.603 139.933 119.267 139.328 121.082 139.328C124.561 139.328 127.587 141.596 128.494 144.772H93.7046H92.192H78.125C78.2763 140.537 81.7552 137.059 85.9904 137.059Z" fill="#E4F8EE"/>
<path d="M145.028 70.816C144.423 66.2795 140.49 62.8015 135.801 62.8015C133.683 62.8015 131.868 63.4063 130.356 64.6161C129.902 56.2991 122.944 49.7968 114.625 49.7968C110.843 49.7968 107.364 51.1578 104.642 53.426C104.037 39.0604 92.2384 27.5679 77.7176 27.5679C71.8186 27.5679 66.2219 29.5337 61.8354 32.7093C58.054 14.2608 41.7181 0.500015 22.2058 0.500015C-0.180496 0.500015 -18.3315 18.6461 -18.3315 41.0262C-18.3315 41.3286 -18.3315 41.4799 -18.3315 41.7823C-22.113 38.9092 -26.802 37.2458 -31.7935 37.2458C-44.0455 37.2458 -54.0285 47.2261 -54.0285 59.4747C-54.0285 59.7771 -54.0285 60.2308 -54.0285 60.5332C-56.1462 58.5674 -59.0201 57.5089 -62.0452 57.5089C-65.2216 57.5089 -68.2468 58.7186 -70.3644 60.8356C-72.0283 53.1236 -78.8349 47.3773 -87.0029 47.3773C-96.3809 47.3773 -103.944 54.9382 -104.095 64.1624C-105.456 63.4063 -106.818 62.9527 -108.482 62.9527C-113.171 62.9527 -116.952 66.4307 -117.708 70.9672H145.028V70.816Z" fill="#E4F8EE"/>
</svg>
