<svg width="375" height="313" viewBox="0 0 375 313" fill="none" xmlns="http://www.w3.org/2000/svg">
<path d="M28.5273 256.747V153.617C30.4937 153.012 32.46 152.559 34.5777 152.559C43.8044 152.559 51.3673 159.212 52.7287 168.134C53.485 167.832 54.3925 167.68 55.3001 167.68C59.2328 167.68 62.5605 170.553 63.468 174.183C63.6193 174.183 63.9218 174.183 64.0731 174.183C72.241 174.183 79.1989 178.719 82.8291 185.524C85.4005 181.441 89.9382 178.719 95.2323 178.719C96.8961 178.719 98.4087 179.022 99.9213 179.475C101.736 171.158 109.148 164.958 117.921 164.958C118.829 164.958 119.736 165.11 120.644 165.261V165.11C120.644 156.339 127.753 149.081 136.526 149.081C143.03 149.081 148.475 153.012 151.047 158.607C153.467 157.398 156.189 156.641 159.215 156.641C169.349 156.641 177.668 164.958 177.668 175.241C177.668 176.602 177.517 178.114 177.214 179.324C181.752 180.383 185.534 182.953 188.256 186.582C192.34 181.592 198.391 178.568 205.197 178.568C216.39 178.568 225.617 187.036 226.978 197.924C228.491 197.168 230.155 196.714 231.819 196.714C237.869 196.714 242.861 201.704 242.861 207.753C242.861 207.904 242.861 208.206 242.861 208.358C243.919 206.846 245.735 205.787 247.701 205.787C250.575 205.787 252.844 207.753 253.449 210.324C253.751 210.021 253.902 209.87 254.205 209.567C255.415 202.763 261.314 197.621 268.575 197.621C274.474 197.621 279.616 201.251 281.885 206.392C282.339 201.855 285.969 198.226 290.658 197.772C289.599 195.807 289.146 193.538 289.146 191.119C289.146 183.104 295.499 176.602 303.364 176.3C302.91 174.636 302.759 172.973 302.759 171.158C302.759 158.91 312.591 148.929 324.843 148.929C335.582 148.929 344.506 156.793 346.473 167.075C347.531 166.924 348.741 166.773 349.952 166.773C351.918 166.773 353.733 167.075 355.548 167.529C359.178 163.749 364.321 161.329 369.918 161.329C380.96 161.329 389.884 170.402 389.884 181.441V256.596L28.5273 256.747Z" fill="#E4F8EE"/>
<path d="M146.66 210.172C142.879 210.172 139.854 207.148 139.854 203.368V193.538C139.854 193.236 140.156 192.934 140.459 192.934C140.761 192.934 141.064 193.236 141.064 193.538V203.368C141.064 206.543 143.635 209.114 146.812 209.114C147.114 209.114 147.417 209.416 147.417 209.719C147.265 209.87 147.114 210.172 146.66 210.172Z" fill="#144F33"/>
<path d="M146.66 212.289C146.358 212.289 146.055 211.987 146.055 211.685C146.055 211.382 146.358 211.08 146.66 211.08C149.837 211.08 152.408 208.509 152.408 205.333V195.655C152.408 195.353 152.71 195.051 153.013 195.051C153.315 195.051 153.618 195.353 153.618 195.655V205.485C153.618 209.265 150.593 212.289 146.66 212.289Z" fill="#144F33"/>
<path d="M146.66 224.236C146.358 224.236 146.055 223.933 146.055 223.631V196.109C146.055 195.807 146.358 195.504 146.66 195.504C146.963 195.504 147.265 195.807 147.265 196.109V223.631C147.265 224.084 147.114 224.236 146.66 224.236Z" fill="#144F33"/>
<path d="M169.803 183.709C169.803 196.412 159.517 206.846 146.66 206.846C133.803 206.846 123.518 196.563 123.518 183.709C123.518 170.856 133.803 136.681 146.66 136.681C159.517 136.681 169.803 170.856 169.803 183.709Z" fill="#00B149"/>
<path d="M146.66 197.319C146.358 197.319 146.055 197.016 146.055 196.714V151.349C146.055 151.046 146.358 150.744 146.66 150.744C146.963 150.744 147.265 151.046 147.265 151.349V196.714C147.265 197.016 147.114 197.319 146.66 197.319Z" fill="#144F33"/>
<path d="M146.66 191.27C146.358 191.27 146.055 190.968 146.055 190.665C146.055 190.363 146.358 190.06 146.66 190.06C151.803 190.06 155.887 185.978 155.887 180.836C155.887 180.534 156.189 180.231 156.492 180.231C156.794 180.231 157.097 180.534 157.097 180.836C157.097 186.582 152.408 191.27 146.66 191.27Z" fill="#144F33"/>
<path d="M146.66 165.412C143.484 165.412 141.064 162.841 141.064 159.817C141.064 159.515 141.366 159.212 141.669 159.212C141.971 159.212 142.274 159.515 142.274 159.817C142.274 162.236 144.24 164.354 146.811 164.354C147.114 164.354 147.417 164.656 147.417 164.958C147.417 165.261 147.114 165.412 146.66 165.412Z" fill="#144F33"/>
<path d="M179.181 208.963C174.946 208.963 171.618 205.636 171.618 201.402V190.514C171.618 190.212 171.921 189.909 172.223 189.909C172.526 189.909 172.828 190.212 172.828 190.514V201.402C172.828 204.88 175.702 207.904 179.332 207.904C179.635 207.904 179.937 208.206 179.937 208.509C179.937 208.811 179.484 208.963 179.181 208.963Z" fill="#144F33"/>
<path d="M179.181 203.67C178.879 203.67 178.576 203.368 178.576 203.065C178.576 202.763 178.879 202.46 179.181 202.46C182.66 202.46 185.685 199.587 185.685 195.958V185.07C185.685 184.768 185.988 184.465 186.29 184.465C186.593 184.465 186.895 184.768 186.895 185.07V195.958C186.744 200.192 183.416 203.67 179.181 203.67Z" fill="#144F33"/>
<path d="M179.181 217.431C178.879 217.431 178.576 217.128 178.576 216.826V186.28C178.576 185.978 178.879 185.675 179.181 185.675C179.484 185.675 179.786 185.978 179.786 186.28V216.826C179.786 217.279 179.484 217.431 179.181 217.431Z" fill="#144F33"/>
<path d="M204.276 178.406C207.539 164.589 198.981 150.743 185.16 147.48C171.339 144.218 157.49 152.774 154.226 166.591C150.963 180.408 159.521 194.253 173.342 197.516C187.163 200.779 201.012 192.223 204.276 178.406Z" fill="#00C853"/>
<path d="M179.181 187.641C178.879 187.641 178.576 187.339 178.576 187.036V163.749C178.576 163.446 178.879 163.144 179.181 163.144C179.484 163.144 179.786 163.446 179.786 163.749V187.036C179.786 187.339 179.484 187.641 179.181 187.641Z" fill="#144F33"/>
<path d="M179.181 180.836C178.879 180.836 178.576 180.534 178.576 180.231C178.576 179.929 178.879 179.626 179.181 179.626C182.66 179.626 185.685 176.753 185.685 173.124C185.685 172.822 185.988 172.519 186.29 172.519C186.593 172.519 186.895 172.822 186.895 173.124C186.744 177.358 183.416 180.836 179.181 180.836Z" fill="#144F33"/>
<path d="M179.181 169.949C175.702 169.949 172.979 167.227 172.979 163.749C172.979 163.446 173.282 163.144 173.585 163.144C173.887 163.144 174.19 163.446 174.19 163.749C174.19 166.622 176.458 168.89 179.332 168.89C179.635 168.89 179.937 169.193 179.937 169.495C179.786 169.646 179.484 169.949 179.181 169.949Z" fill="#144F33"/>
<path d="M279.919 220.153C275.684 220.153 272.356 216.826 272.356 212.592V201.704C272.356 201.402 272.659 201.099 272.961 201.099C273.264 201.099 273.566 201.402 273.566 201.704V212.592C273.566 216.07 276.44 219.094 280.07 219.094C280.373 219.094 280.675 219.397 280.675 219.699C280.675 220.001 280.222 220.153 279.919 220.153Z" fill="#144F33"/>
<path d="M279.919 214.86C279.617 214.86 279.314 214.558 279.314 214.255C279.314 213.953 279.617 213.65 279.919 213.65C283.398 213.65 286.423 210.777 286.423 207.148V196.26C286.423 195.958 286.726 195.655 287.028 195.655C287.331 195.655 287.633 195.958 287.633 196.26V207.148C287.482 211.533 284.154 214.86 279.919 214.86Z" fill="#144F33"/>
<path d="M279.919 228.772C279.617 228.772 279.314 228.47 279.314 228.167V197.621C279.314 197.319 279.617 197.016 279.919 197.016C280.222 197.016 280.524 197.319 280.524 197.621V228.167C280.524 228.47 280.222 228.772 279.919 228.772Z" fill="#144F33"/>
<path d="M298.13 201.896C308.172 191.857 308.172 175.581 298.13 165.542C288.088 155.503 271.807 155.503 261.765 165.542C251.723 175.581 251.723 191.857 261.765 201.896C271.807 211.936 288.088 211.936 298.13 201.896Z" fill="#00C853"/>
<path d="M279.919 198.831C279.617 198.831 279.314 198.529 279.314 198.226V174.939C279.314 174.636 279.617 174.334 279.919 174.334C280.222 174.334 280.524 174.636 280.524 174.939V198.226C280.524 198.529 280.222 198.831 279.919 198.831Z" fill="#144F33"/>
<path d="M279.919 192.026C279.617 192.026 279.314 191.724 279.314 191.421C279.314 191.119 279.617 190.817 279.919 190.817C283.398 190.817 286.423 187.943 286.423 184.314C286.423 184.012 286.726 183.709 287.028 183.709C287.331 183.709 287.633 184.012 287.633 184.314C287.482 188.548 284.154 192.026 279.919 192.026Z" fill="#144F33"/>
<path d="M279.919 181.139C276.44 181.139 273.718 178.417 273.718 174.939C273.718 174.636 274.02 174.334 274.323 174.334C274.625 174.334 274.928 174.636 274.928 174.939C274.928 177.812 277.196 180.08 280.07 180.08C280.373 180.08 280.675 180.383 280.675 180.685C280.524 180.836 280.222 181.139 279.919 181.139Z" fill="#144F33"/>
<path d="M311.684 234.216C308.205 234.216 305.331 231.343 305.331 227.865V218.792C305.331 218.489 305.633 218.187 305.936 218.187C306.238 218.187 306.541 218.489 306.541 218.792V227.865C306.541 230.738 308.961 233.157 311.835 233.157C312.137 233.157 312.44 233.46 312.44 233.762C312.44 234.065 311.986 234.216 311.684 234.216Z" fill="#144F33"/>
<path d="M311.683 229.679C311.381 229.679 311.078 229.377 311.078 229.075C311.078 228.772 311.381 228.47 311.683 228.47C314.557 228.47 316.977 226.05 316.977 223.177V214.104C316.977 213.802 317.28 213.499 317.583 213.499C317.885 213.499 318.188 213.802 318.188 214.104V223.177C318.036 226.806 315.162 229.679 311.683 229.679Z" fill="#144F33"/>
<path d="M311.683 241.323C311.381 241.323 311.078 241.021 311.078 240.718V215.314C311.078 215.011 311.381 214.709 311.683 214.709C311.986 214.709 312.288 215.011 312.288 215.314V240.869C312.137 241.021 311.986 241.323 311.683 241.323Z" fill="#144F33"/>
<path d="M326.81 218.681C335.198 210.295 335.198 196.7 326.81 188.314C318.422 179.928 304.822 179.928 296.435 188.314C288.047 196.7 288.047 210.295 296.435 218.681C304.822 227.067 318.422 227.067 326.81 218.681Z" fill="#00B149"/>
<path d="M311.683 216.372C311.381 216.372 311.078 216.07 311.078 215.767V196.26C311.078 195.958 311.381 195.655 311.683 195.655C311.986 195.655 312.288 195.958 312.288 196.26V215.767C312.137 216.07 311.986 216.372 311.683 216.372Z" fill="#144F33"/>
<path d="M311.683 210.626C311.381 210.626 311.078 210.323 311.078 210.021C311.078 209.719 311.381 209.416 311.683 209.416C314.557 209.416 316.977 206.997 316.977 204.124C316.977 203.821 317.28 203.519 317.583 203.519C317.885 203.519 318.188 203.821 318.188 204.124C318.036 207.753 315.162 210.626 311.683 210.626Z" fill="#144F33"/>
<path d="M311.683 201.553C308.809 201.553 306.389 199.133 306.389 196.26C306.389 195.958 306.692 195.655 306.994 195.655C307.297 195.655 307.599 195.958 307.599 196.26C307.599 198.529 309.415 200.343 311.683 200.343C311.986 200.343 312.288 200.646 312.288 200.948C312.137 201.251 311.986 201.553 311.683 201.553Z" fill="#144F33"/>
<path d="M217.903 201.704C213.668 201.704 210.34 198.377 210.34 194.143V183.256C210.34 182.953 210.643 182.651 210.945 182.651C211.248 182.651 211.55 182.953 211.55 183.256V194.143C211.55 197.621 214.424 200.646 218.055 200.646C218.357 200.646 218.66 200.948 218.66 201.251C218.66 201.553 218.206 201.704 217.903 201.704Z" fill="#144F33"/>
<path d="M217.903 204.124C217.601 204.124 217.298 203.821 217.298 203.519C217.298 203.216 217.601 202.914 217.903 202.914C221.382 202.914 224.408 200.041 224.408 196.412V185.524C224.408 185.221 224.71 184.919 225.013 184.919C225.315 184.919 225.618 185.221 225.618 185.524V196.412C225.466 200.797 222.139 204.124 217.903 204.124Z" fill="#144F33"/>
<path d="M217.903 217.431C217.601 217.431 217.298 217.128 217.298 216.826V186.28C217.298 185.978 217.601 185.675 217.903 185.675C218.206 185.675 218.508 185.978 218.508 186.28V216.826C218.508 217.28 218.206 217.431 217.903 217.431Z" fill="#144F33"/>
<path d="M243.617 172.519C243.617 186.734 232.122 198.226 217.903 198.226C203.685 198.226 192.189 186.734 192.189 172.519C192.189 158.305 203.685 120.349 217.903 120.349C232.122 120.349 243.617 158.305 243.617 172.519Z" fill="#00B149"/>
<path d="M217.903 187.641C217.601 187.641 217.298 187.339 217.298 187.036V136.681C217.298 136.378 217.601 136.076 217.903 136.076C218.206 136.076 218.508 136.378 218.508 136.681V187.036C218.508 187.339 218.206 187.641 217.903 187.641Z" fill="#144F33"/>
<path d="M217.903 180.836C217.601 180.836 217.298 180.534 217.298 180.231C217.298 179.929 217.601 179.626 217.903 179.626C223.5 179.626 228.189 175.09 228.189 169.344C228.189 169.041 228.491 168.739 228.794 168.739C229.096 168.739 229.399 169.041 229.399 169.344C229.399 175.695 224.256 180.836 217.903 180.836Z" fill="#144F33"/>
<path d="M217.903 152.105C214.424 152.105 211.701 149.383 211.701 145.905C211.701 145.603 212.004 145.3 212.306 145.3C212.609 145.3 212.912 145.603 212.912 145.905C212.912 148.778 215.18 151.046 218.054 151.046C218.357 151.046 218.659 151.349 218.659 151.651C218.508 151.954 218.206 152.105 217.903 152.105Z" fill="#144F33"/>
<path d="M387.766 161.178L281.885 303.625H513.008L407.127 161.178C402.438 154.676 392.607 154.676 387.766 161.178Z" fill="#00E792"/>
<path d="M450.993 269.904L399.868 258.714C396.086 257.958 393.968 253.875 395.33 250.246L402.439 232.553C404.103 228.319 401.834 223.631 397.599 222.27L384.742 218.339C381.565 217.431 379.75 214.105 380.658 210.778L395.027 156.491C392.305 157.096 389.733 158.608 387.918 161.027L282.037 303.474H513.16L459.312 282.455C457.497 281.699 456.287 280.035 456.287 278.07V276.255C456.287 273.382 454.169 270.66 450.993 269.904Z" fill="#00C853"/>
<path d="M-12.7663 97.6668L-158.277 303.776H159.517L13.8552 97.6668C7.19984 88.2913 -6.11092 88.2913 -12.7663 97.6668Z" fill="#00C853"/>
<path d="M74.0561 254.782L3.72093 238.601C-1.5731 237.392 -4.44701 231.494 -2.48065 226.353L7.19989 200.797C9.46877 194.748 6.44359 187.792 0.39325 185.978L-28.0433 177.056C-32.4298 175.695 -35.0012 170.856 -33.7911 166.168L-2.93442 91.0134C-6.71588 91.9207 -10.1948 94.0377 -12.7662 97.6669L-158.277 303.776H159.517L85.5518 273.381C83.1316 272.323 81.4678 269.903 81.4678 267.03V264.459C81.3165 259.772 78.2914 255.84 74.0561 254.782Z" fill="#00B149"/>
<path d="M432.236 303.776C432.236 303.776 297.465 212.894 204.29 212.894C111.114 212.894 9.1662 303.776 9.1662 303.776H432.236Z" fill="#00B149"/>
<path d="M210.794 293.947C212.609 290.317 215.483 286.991 218.508 284.269C224.558 278.976 231.667 275.196 238.172 270.659C245.583 265.518 252.692 258.864 254.205 249.489C255.566 240.416 251.029 231.796 244.524 225.748C240.44 221.967 230.76 216.07 226.827 214.406C219.113 213.348 211.701 212.894 204.441 212.894C203.533 212.894 202.777 212.894 201.87 212.894C205.349 213.953 208.676 215.162 212.004 216.675C217.903 219.397 223.802 222.875 228.189 227.714C231.516 231.494 233.936 236.333 233.331 241.474C232.878 245.86 230.155 249.489 226.827 252.362C222.894 255.689 218.205 258.108 213.516 260.225C208.374 262.493 203.231 264.157 197.937 265.82C193.55 267.181 189.013 268.391 184.626 269.903C179.03 271.718 173.584 274.44 168.441 277.313C162.391 280.64 156.643 284.722 152.106 290.166C148.778 294.249 146.358 298.937 144.996 303.927H207.92C208.374 300.449 209.281 297.122 210.794 293.947Z" fill="#F2B55A"/>
<path d="M386.579 144.747L356.327 162.742C355.722 163.044 354.966 162.893 354.663 162.288L354.361 161.683C354.058 161.078 354.058 160.322 354.663 159.869L371.756 142.932C373.117 141.571 375.083 140.966 377.05 141.269L383.1 142.327L385.369 140.966L386.579 144.747Z" fill="#F27512"/>
<path d="M79.4721 303.776H74.0267L74.6318 174.939H78.8671L79.4721 303.776Z" fill="#19185E"/>
<path d="M75.0859 171.612V137.891C75.0859 137.286 75.5397 136.832 76.1447 136.832H76.901C77.506 136.832 78.111 137.286 78.2623 137.891L83.7076 159.666C84.1614 161.48 83.7076 163.295 82.4976 164.656L78.8674 168.89V171.158L75.0859 171.612Z" fill="#F27512"/>
<path d="M79.1697 171.914L109.875 185.524C110.48 185.826 110.631 186.431 110.48 187.036L110.178 187.641C109.875 188.246 109.27 188.548 108.665 188.397L86.5813 184.465C84.7662 184.163 83.2537 182.953 82.4974 181.29L80.0772 176.148L77.6571 175.09L79.1697 171.914Z" fill="#F27512"/>
<path d="M75.9933 175.695L47.8593 192.48C47.4055 192.782 46.6492 192.631 46.3467 192.026L46.0442 191.421C45.7417 190.817 45.7417 190.212 46.1954 189.758L62.0776 173.88C63.2876 172.67 65.254 172.066 66.9178 172.368L72.5144 173.275L74.632 172.066L75.9933 175.695Z" fill="#F27512"/>
<path d="M77.0521 175.846C78.8064 175.846 80.2285 174.424 80.2285 172.67C80.2285 170.917 78.8064 169.495 77.0521 169.495C75.2978 169.495 73.8757 170.917 73.8757 172.67C73.8757 174.424 75.2978 175.846 77.0521 175.846Z" fill="#19185E"/>
<path d="M78.7162 172.671C78.7162 173.578 77.9599 174.184 77.2036 174.184C76.4473 174.184 75.691 173.427 75.691 172.671C75.691 171.915 76.4473 171.158 77.2036 171.158C77.9599 171.158 78.7162 171.763 78.7162 172.671Z" fill="#E1E3F7"/>
<path d="M413.934 303.776C390.338 295.61 368.708 299.844 343.145 294.551C319.095 289.259 304.574 285.327 283.247 285.327C250.575 285.327 236.205 291.981 209.433 303.776C209.281 303.776 407.43 303.927 413.934 303.776Z" fill="#00C853"/>
<path d="M25.0486 280.639C24.7461 280.639 24.4436 280.337 24.4436 280.035C24.4436 279.732 24.7461 279.43 25.0486 279.43C27.4687 279.43 29.4351 277.464 29.4351 275.044V267.484C29.4351 267.181 29.7376 266.879 30.0401 266.879C30.3426 266.879 30.6452 267.181 30.6452 267.484V275.044C30.4939 278.22 28.0738 280.639 25.0486 280.639Z" fill="#144F33"/>
<path d="M25.0486 282.303C22.0234 282.303 19.6032 279.883 19.6032 276.859V269.298C19.6032 268.996 19.9058 268.693 20.2083 268.693C20.5108 268.693 20.8133 268.996 20.8133 269.298V276.859C20.8133 279.279 22.7797 281.244 25.1998 281.244C25.5023 281.244 25.8049 281.547 25.8049 281.849C25.5023 282 25.3511 282.303 25.0486 282.303Z" fill="#144F33"/>
<path d="M25.0486 291.527C24.7461 291.527 24.4436 291.225 24.4436 290.922V269.752C24.4436 269.449 24.7461 269.147 25.0486 269.147C25.3511 269.147 25.6536 269.449 25.6536 269.752V291.073C25.5024 291.376 25.3511 291.527 25.0486 291.527Z" fill="#144F33"/>
<path d="M7.04881 259.923C7.04881 269.752 15.0655 277.766 24.8973 277.766C34.7291 277.766 42.7458 269.752 42.7458 259.923C42.7458 250.094 34.7291 223.479 24.8973 223.479C15.0655 223.631 7.04881 250.094 7.04881 259.923Z" fill="#039B41"/>
<path d="M25.0486 270.659C24.7461 270.659 24.4436 270.357 24.4436 270.054V234.972C24.4436 234.669 24.7461 234.367 25.0486 234.367C25.3511 234.367 25.6536 234.669 25.6536 234.972V270.205C25.5024 270.508 25.3511 270.659 25.0486 270.659Z" fill="#144F33"/>
<path d="M25.0485 265.971C20.5108 265.971 16.8806 262.342 16.8806 257.806C16.8806 257.503 17.1831 257.201 17.4856 257.201C17.7881 257.201 18.0906 257.503 18.0906 257.806C18.0906 261.737 21.2671 264.762 25.0485 264.762C25.351 264.762 25.6535 265.064 25.6535 265.367C25.6535 265.669 25.351 265.971 25.0485 265.971Z" fill="#144F33"/>
<path d="M25.0486 246.011C24.7461 246.011 24.4436 245.708 24.4436 245.406C24.4436 245.103 24.7461 244.801 25.0486 244.801C26.8637 244.801 28.3763 243.289 28.3763 241.474C28.3763 241.172 28.6788 240.869 28.9813 240.869C29.2838 240.869 29.5863 241.172 29.5863 241.474C29.4351 243.894 27.4687 246.011 25.0486 246.011Z" fill="#144F33"/>
<path d="M210.794 290.317C210.491 290.317 210.189 290.015 210.189 289.713C210.189 289.41 210.491 289.108 210.794 289.108C212.609 289.108 214.122 287.596 214.122 285.781V279.883C214.122 279.581 214.424 279.279 214.727 279.279C215.029 279.279 215.332 279.581 215.332 279.883V285.781C215.18 288.352 213.214 290.317 210.794 290.317Z" fill="#144F33"/>
<path d="M210.794 291.678C208.374 291.678 206.407 289.713 206.407 287.293V281.396C206.407 281.093 206.71 280.791 207.012 280.791C207.315 280.791 207.618 281.093 207.618 281.396V287.293C207.618 289.108 209.13 290.62 210.945 290.62C211.248 290.62 211.55 290.922 211.55 291.225C211.399 291.376 211.096 291.678 210.794 291.678Z" fill="#144F33"/>
<path d="M210.794 298.937C210.491 298.937 210.189 298.634 210.189 298.332V281.698C210.189 281.396 210.491 281.093 210.794 281.093C211.096 281.093 211.399 281.396 211.399 281.698V298.332C211.399 298.634 211.096 298.937 210.794 298.937Z" fill="#144F33"/>
<path d="M196.878 273.986C196.878 281.698 203.231 288.049 210.945 288.049C218.659 288.049 225.012 281.698 225.012 273.986C225.012 266.274 218.659 245.557 210.945 245.557C203.08 245.557 196.878 266.274 196.878 273.986Z" fill="#039B41"/>
<path d="M210.794 282.605C210.491 282.605 210.189 282.303 210.189 282V254.479C210.189 254.177 210.491 253.874 210.794 253.874C211.096 253.874 211.399 254.177 211.399 254.479V282C211.399 282.303 211.096 282.605 210.794 282.605Z" fill="#144F33"/>
<path d="M210.794 278.825C207.164 278.825 204.29 275.952 204.29 272.323C204.29 272.02 204.592 271.718 204.895 271.718C205.197 271.718 205.5 272.02 205.5 272.323C205.5 275.347 207.92 277.615 210.794 277.615C211.096 277.615 211.399 277.918 211.399 278.22C211.399 278.674 211.096 278.825 210.794 278.825Z" fill="#144F33"/>
<path d="M210.794 263.25C210.491 263.25 210.189 262.947 210.189 262.645C210.189 262.342 210.491 262.04 210.794 262.04C212.155 262.04 213.365 260.981 213.365 259.469C213.365 259.167 213.668 258.864 213.97 258.864C214.273 258.864 214.575 259.167 214.575 259.469C214.424 261.586 212.911 263.25 210.794 263.25Z" fill="#144F33"/>
<path d="M238.323 293.493C235.601 293.493 233.332 291.225 233.332 288.503V281.698C233.332 281.396 233.634 281.093 233.937 281.093C234.239 281.093 234.542 281.396 234.542 281.698V288.503C234.542 290.62 236.206 292.283 238.323 292.283C238.626 292.283 238.928 292.586 238.928 292.888C238.928 293.191 238.626 293.493 238.323 293.493Z" fill="#144F33"/>
<path d="M238.323 290.166C238.02 290.166 237.718 289.864 237.718 289.561C237.718 289.259 238.02 288.956 238.323 288.956C240.441 288.956 242.104 287.293 242.104 285.025V278.22C242.104 277.918 242.407 277.615 242.709 277.615C243.012 277.615 243.314 277.918 243.314 278.22V285.025C243.314 287.898 241.197 290.166 238.323 290.166Z" fill="#144F33"/>
<path d="M238.323 298.937C238.02 298.937 237.718 298.634 237.718 298.332V279.127C237.718 278.825 238.02 278.523 238.323 278.523C238.625 278.523 238.928 278.825 238.928 279.127V298.332C238.928 298.634 238.625 298.937 238.323 298.937Z" fill="#144F33"/>
<path d="M254.359 272.857C255.791 264.036 249.799 255.725 240.976 254.294C232.153 252.862 223.839 258.852 222.407 267.673C220.975 276.494 226.967 284.805 235.79 286.237C244.614 287.668 252.927 281.678 254.359 272.857Z" fill="#00C853"/>
<path d="M238.323 280.035C238.02 280.035 237.718 279.732 237.718 279.43V264.762C237.718 264.459 238.02 264.157 238.323 264.157C238.625 264.157 238.928 264.459 238.928 264.762V279.43C238.928 279.732 238.625 280.035 238.323 280.035Z" fill="#144F33"/>
<path d="M238.323 275.649C238.02 275.649 237.718 275.347 237.718 275.045C237.718 274.742 238.02 274.44 238.323 274.44C240.441 274.44 242.104 272.776 242.104 270.508C242.104 270.206 242.407 269.903 242.709 269.903C243.012 269.903 243.314 270.206 243.314 270.508C243.314 273.381 241.197 275.649 238.323 275.649Z" fill="#144F33"/>
<path d="M238.323 268.845C236.054 268.845 234.239 267.03 234.239 264.762C234.239 264.459 234.542 264.157 234.844 264.157C235.147 264.157 235.449 264.459 235.449 264.762C235.449 266.425 236.811 267.786 238.475 267.786C238.777 267.786 239.08 268.089 239.08 268.391C239.08 268.693 238.626 268.845 238.323 268.845Z" fill="#144F33"/>
<path d="M376.809 292.487H374.238V303.829H376.809V292.487Z" fill="#363B9D"/>
<path d="M352.456 297.175H392.994C394.355 297.175 395.716 296.117 396.019 294.756L403.43 265.42C403.733 264.059 402.977 263 401.615 263H360.473C359.112 263 357.75 264.059 357.448 265.42L350.49 294.756C350.339 296.117 351.095 297.175 352.456 297.175Z" fill="#363B9D"/>
<path d="M350.944 297.175H391.481C392.842 297.175 394.204 296.117 394.506 294.756L401.918 265.419C402.22 264.059 401.464 263 400.103 263H358.96C357.599 263 356.238 264.059 355.935 265.419L348.977 294.756C348.826 296.117 349.582 297.175 350.944 297.175Z" fill="white"/>
<path d="M374.843 274.191H368.792C368.49 274.191 368.187 274.04 368.036 273.737L367.885 273.586C367.733 273.435 367.582 273.132 367.733 272.83L369.397 266.176C369.549 265.874 369.851 265.571 370.154 265.571H377.111C377.716 265.571 378.019 266.025 377.868 266.63L376.355 272.981C376.355 273.132 376.204 273.435 375.901 273.435C375.75 273.586 375.448 273.737 375.296 273.888C375.296 274.191 374.994 274.191 374.843 274.191Z" fill="#19185E"/>
<path d="M368.339 275.853H374.086C374.389 275.853 374.691 276.005 374.843 276.307C374.843 276.458 374.994 276.458 374.994 276.61C375.145 276.761 375.296 277.063 375.296 277.366L373.935 283.112C373.935 283.414 373.784 283.566 373.481 283.717C373.33 283.868 373.028 284.019 372.876 284.17C372.725 284.322 372.422 284.473 372.271 284.473H366.372C366.07 284.473 365.767 284.322 365.616 284.019C365.616 283.868 365.465 283.868 365.465 283.717C365.313 283.566 365.162 283.263 365.313 282.961L366.675 277.214C366.675 276.912 366.826 276.761 367.128 276.61C367.28 276.458 367.582 276.307 367.733 276.156C367.885 276.005 368.187 275.853 368.339 275.853Z" fill="#19185E"/>
<path d="M362.591 287.648L361.078 294C360.927 294.302 360.624 294.604 360.322 294.604H353.515C352.91 294.604 352.608 294.151 352.759 293.546L354.423 286.741C354.574 286.439 354.876 286.136 355.179 286.136H361.532C361.834 286.136 362.137 286.288 362.288 286.59C362.288 286.741 362.439 286.892 362.591 286.892C362.591 287.044 362.591 287.346 362.591 287.648Z" fill="#19185E"/>
<path d="M367.582 266.63L366.07 272.981C366.07 273.284 365.919 273.435 365.616 273.435C365.465 273.586 365.162 273.737 365.011 273.888C364.86 274.04 364.557 274.191 364.406 274.191H358.204C357.599 274.191 357.297 273.737 357.448 273.132L359.112 266.176C359.263 265.874 359.566 265.571 359.868 265.571H366.826C367.28 265.723 367.734 266.176 367.582 266.63Z" fill="#19185E"/>
<path d="M365.918 286.136H371.817C372.12 286.136 372.423 286.288 372.574 286.59C372.574 286.741 372.725 286.741 372.725 286.892C372.876 287.044 373.028 287.346 372.876 287.648L371.364 294C371.212 294.302 370.91 294.604 370.607 294.604H363.801C363.196 294.604 362.893 294.151 363.044 293.546L364.557 287.346C364.557 287.195 364.708 286.892 365.011 286.892C365.162 286.741 365.465 286.59 365.616 286.439C365.465 286.288 365.616 286.136 365.918 286.136Z" fill="#19185E"/>
<path d="M365.011 277.517L363.649 283.112C363.649 283.414 363.347 283.566 363.195 283.717C362.893 283.868 362.742 284.019 362.59 284.17C362.439 284.322 362.137 284.473 361.985 284.473H355.784C355.179 284.473 354.876 284.019 355.027 283.414L356.691 276.458C356.843 276.156 357.145 275.853 357.448 275.853H363.801C364.103 275.853 364.406 276.005 364.557 276.307C364.557 276.458 364.708 276.458 364.708 276.61C365.011 276.912 365.162 277.214 365.011 277.517Z" fill="#19185E"/>
<path d="M376.204 286.136H381.952C382.254 286.136 382.557 286.288 382.708 286.59C382.708 286.741 382.859 286.741 382.859 286.892C383.01 287.044 383.162 287.346 383.01 287.648L381.498 294C381.347 294.302 381.044 294.604 380.742 294.604H373.935C373.33 294.604 373.027 294.151 373.179 293.546L374.691 287.346C374.691 287.044 374.842 286.892 375.145 286.741C375.296 286.59 375.599 286.439 375.75 286.287C375.75 286.287 375.901 286.136 376.204 286.136Z" fill="#19185E"/>
<path d="M387.851 302.619H363.196V303.829H387.851V302.619Z" fill="#363B9D"/>
<path d="M255.264 295.611H194.76V296.972H255.264V295.611Z" fill="#F9E6CD"/>
<path d="M255.264 300.751H194.76V302.113H255.264V300.751Z" fill="#F9E6CD"/>
<path d="M197.634 303.625H195.971C195.668 303.625 195.366 303.473 195.366 303.171V294.249C195.366 294.098 195.366 294.098 195.517 293.947L196.424 292.737C196.576 292.434 197.181 292.434 197.332 292.737L198.239 293.947C198.239 293.947 198.391 294.098 198.391 294.249V303.171C198.239 303.473 197.937 303.625 197.634 303.625Z" fill="white"/>
<path d="M202.323 303.625H200.659C200.357 303.625 200.054 303.473 200.054 303.171V294.249C200.054 294.098 200.054 294.098 200.206 293.947L201.113 292.737C201.264 292.434 201.87 292.434 202.021 292.737L202.928 293.947C202.928 293.947 203.08 294.098 203.08 294.249V303.171C202.928 303.473 202.626 303.625 202.323 303.625Z" fill="white"/>
<path d="M207.012 303.625H205.348C205.046 303.625 204.743 303.473 204.743 303.171V294.249C204.743 294.098 204.743 294.098 204.895 293.947L205.802 292.737C205.953 292.434 206.559 292.434 206.71 292.737L207.617 293.947C207.617 293.947 207.769 294.098 207.769 294.249V303.171C207.617 303.473 207.315 303.625 207.012 303.625Z" fill="white"/>
<path d="M211.701 303.625H210.038C209.735 303.625 209.433 303.473 209.433 303.171V294.249C209.433 294.098 209.433 294.098 209.584 293.947L210.491 292.737C210.643 292.434 211.248 292.434 211.399 292.737L212.306 293.947C212.306 293.947 212.458 294.098 212.458 294.249V303.171C212.306 303.473 212.004 303.625 211.701 303.625Z" fill="white"/>
<path d="M216.391 303.625H214.727C214.424 303.625 214.122 303.473 214.122 303.171V294.249C214.122 294.098 214.122 294.098 214.273 293.947L215.181 292.737C215.332 292.434 215.937 292.434 216.088 292.737L216.996 293.947C216.996 293.947 217.147 294.098 217.147 294.249V303.171C216.844 303.473 216.693 303.625 216.391 303.625Z" fill="white"/>
<path d="M221.079 303.625H219.415C219.113 303.625 218.81 303.473 218.81 303.171V294.249C218.81 294.098 218.81 294.098 218.962 293.947L219.869 292.737C220.02 292.434 220.626 292.434 220.777 292.737L221.684 293.947C221.684 293.947 221.836 294.098 221.836 294.249V303.171C221.533 303.473 221.382 303.625 221.079 303.625Z" fill="white"/>
<path d="M225.769 303.625H223.953C223.651 303.625 223.348 303.473 223.348 303.171V294.249C223.348 294.098 223.348 294.098 223.5 293.947L224.407 292.737C224.558 292.434 225.163 292.434 225.315 292.737L226.222 293.947C226.222 293.947 226.374 294.098 226.374 294.249V303.171C226.222 303.473 226.071 303.625 225.769 303.625Z" fill="white"/>
<path d="M230.457 303.625H228.794C228.491 303.625 228.188 303.473 228.188 303.171V294.249C228.188 294.098 228.188 294.098 228.34 293.947L229.247 292.737C229.399 292.434 230.004 292.434 230.155 292.737L231.062 293.947C231.062 293.947 231.214 294.098 231.214 294.249V303.171C230.911 303.473 230.76 303.625 230.457 303.625Z" fill="white"/>
<path d="M235.146 303.625H233.482C233.18 303.625 232.877 303.473 232.877 303.171V294.249C232.877 294.098 232.877 294.098 233.029 293.947L233.936 292.737C234.087 292.434 234.693 292.434 234.844 292.737L235.751 293.947C235.751 293.947 235.903 294.098 235.903 294.249V303.171C235.6 303.473 235.449 303.625 235.146 303.625Z" fill="white"/>
<path d="M239.835 303.625H238.172C237.869 303.625 237.567 303.473 237.567 303.171V294.249C237.567 294.098 237.567 294.098 237.718 293.947L238.625 292.737C238.777 292.434 239.382 292.434 239.533 292.737L240.44 293.947C240.44 293.947 240.592 294.098 240.592 294.249V303.171C240.289 303.473 240.138 303.625 239.835 303.625Z" fill="white"/>
<path d="M244.524 303.625H242.861C242.558 303.625 242.255 303.473 242.255 303.171V294.249C242.255 294.098 242.256 294.098 242.407 293.947L243.314 292.737C243.466 292.434 244.071 292.434 244.222 292.737L245.129 293.947C245.129 293.947 245.281 294.098 245.281 294.249V303.171C244.978 303.473 244.827 303.625 244.524 303.625Z" fill="white"/>
<path d="M249.214 303.625H247.55C247.247 303.625 246.945 303.473 246.945 303.171V294.249C246.945 294.098 246.945 294.098 247.096 293.947L248.003 292.737C248.155 292.434 248.76 292.434 248.911 292.737L249.819 293.947C249.819 293.947 249.97 294.098 249.97 294.249V303.171C249.667 303.473 249.365 303.625 249.214 303.625Z" fill="white"/>
<path d="M253.751 303.625H252.087C251.785 303.625 251.482 303.473 251.482 303.171V294.249C251.482 294.098 251.482 294.098 251.634 293.947L252.541 292.737C252.692 292.434 253.298 292.434 253.449 292.737L254.356 293.947C254.356 293.947 254.508 294.098 254.508 294.249V303.171C254.356 303.473 254.054 303.625 253.751 303.625Z" fill="white"/>
<path d="M147.265 226.201H117.619C117.165 226.201 117.014 226.806 117.316 227.109L132.896 240.567C133.35 240.869 133.803 241.172 134.257 241.172H162.845C163.45 241.172 163.753 240.416 163.299 239.962L148.022 226.806C147.87 226.353 147.719 226.201 147.265 226.201Z" fill="#19185E"/>
<path d="M162.24 303.776H131.534V241.021L146.812 227.865L162.24 241.021V303.776Z" fill="white"/>
<path d="M131.686 241.021H102.644V303.625H131.686V241.021Z" fill="#DFDFDF"/>
<path d="M118.224 226.201H147.417C147.87 226.201 148.022 226.806 147.719 227.109L132.139 240.567C131.686 240.869 131.232 241.172 130.778 241.172H102.19C101.585 241.172 101.283 240.416 101.736 239.962L117.014 226.806C117.316 226.353 117.77 226.201 118.224 226.201Z" fill="#19185E"/>
<path d="M154.223 277.615H140.459V303.624H154.223V277.615Z" fill="#363B9D"/>
<path d="M113.384 246.011H107.636V255.537H113.384V246.011Z" fill="#363B9D"/>
<path d="M125.03 246.011H119.283V255.537H125.03V246.011Z" fill="#363B9D"/>
<path d="M143.484 246.011H136.829V255.537H143.484V246.011Z" fill="#363B9D"/>
<path d="M156.946 246.011H150.29V255.537H156.946V246.011Z" fill="#363B9D"/>
<path d="M143.484 263.098H136.829V272.625H143.484V263.098Z" fill="#363B9D"/>
<path d="M156.946 263.098H150.29V272.625H156.946V263.098Z" fill="#363B9D"/>
<path d="M113.384 263.098H107.636V272.625H113.384V263.098Z" fill="#363B9D"/>
<path d="M125.03 263.098H119.283V272.625H125.03V263.098Z" fill="#363B9D"/>
<path d="M113.384 280.186H107.636V289.712H113.384V280.186Z" fill="#363B9D"/>
<path d="M125.03 280.186H119.283V289.712H125.03V280.186Z" fill="#363B9D"/>
<path d="M150.744 239.056C150.593 236.938 148.929 235.274 146.811 235.274C144.694 235.274 143.03 236.938 142.879 239.056H150.744Z" fill="#363B9D"/>
<path d="M136.375 303.776C112.778 295.61 91.1483 299.844 65.5856 294.551C41.5355 289.259 27.0147 285.327 5.68722 285.327C-26.9846 285.327 -41.3542 291.981 -68.1269 303.776C-68.1269 303.776 129.87 303.927 136.375 303.776Z" fill="#00C853"/>
<path d="M87.9723 294.4H85.8546V303.776H87.9723V294.4Z" fill="#363B9D"/>
<path d="M105.972 298.332H72.3924C71.3335 298.332 70.1235 297.425 69.9722 296.366L63.7706 272.171C63.4681 271.113 64.2244 270.206 65.2832 270.206H99.3164C100.375 270.206 101.585 271.113 101.736 272.171L107.484 296.366C107.787 297.425 107.031 298.332 105.972 298.332Z" fill="#363B9D"/>
<path d="M107.182 298.332H73.6027C72.5439 298.332 71.3338 297.425 71.1826 296.366L64.9809 272.171C64.6784 271.113 65.4347 270.206 66.4935 270.206H100.375C101.434 270.206 102.644 271.113 102.796 272.171L108.543 296.366C108.997 297.425 108.241 298.332 107.182 298.332Z" fill="white"/>
<path d="M79.0482 279.279H83.8884C84.1909 279.279 84.3422 279.128 84.4935 278.977L84.6447 278.825C84.796 278.674 84.9473 278.372 84.796 278.221L83.4347 272.777C83.4347 272.474 83.1321 272.323 82.8296 272.323H77.0818C76.628 272.323 76.3255 272.777 76.4768 273.23L77.8381 278.523C77.8381 278.674 77.9894 278.825 78.1406 278.977C78.2919 279.128 78.4431 279.128 78.5944 279.279C78.5944 279.279 78.7456 279.279 79.0482 279.279Z" fill="#19185E"/>
<path d="M87.5184 279.279H92.5099C92.8124 279.279 92.9637 279.128 93.1149 278.977C93.1149 278.977 93.1149 278.825 93.2662 278.825C93.4175 278.674 93.4174 278.372 93.4174 278.221L92.0561 272.777C92.0561 272.474 91.7536 272.323 91.4511 272.323H85.7033C85.2495 272.323 84.947 272.777 85.0982 273.23L86.3083 278.523C86.3083 278.674 86.4596 278.825 86.6108 278.977C86.7621 279.128 86.9133 279.128 87.0646 279.279C87.0646 279.279 87.2159 279.279 87.5184 279.279Z" fill="#19185E"/>
<path d="M70.4262 279.28H75.2665C75.569 279.28 75.7203 279.128 75.8715 278.977L76.0228 278.826C76.174 278.675 76.3253 278.372 76.174 278.221L74.8127 272.777C74.6614 272.475 74.5102 272.324 74.2077 272.324H68.4598C68.006 272.324 67.7035 272.777 67.8548 273.231L69.2161 278.524C69.2161 278.675 69.3674 278.826 69.5186 278.977C69.6699 279.128 69.8211 279.128 69.9724 279.28C70.1237 279.28 70.2749 279.28 70.4262 279.28Z" fill="#19185E"/>
<path d="M75.7202 280.639H71.0312C70.7287 280.639 70.5775 280.791 70.4262 281.093C70.4262 281.244 70.2749 281.244 70.2749 281.244C70.1237 281.396 69.9724 281.698 70.1237 281.849L71.3338 286.537C71.3338 286.688 71.485 286.839 71.6363 286.99C71.7875 287.142 71.9388 287.293 72.0901 287.444C72.2413 287.595 72.3926 287.747 72.5438 287.747H77.2328C77.5353 287.747 77.6866 287.595 77.8378 287.444C77.8378 287.293 77.9891 287.293 77.9891 287.293C78.1404 287.142 78.2916 286.839 78.1404 286.688L77.2328 281.849C77.2328 281.698 77.0816 281.547 76.9303 281.395C76.7791 281.244 76.6278 281.093 76.4765 280.942C76.174 280.791 76.0228 280.639 75.7202 280.639Z" fill="#19185E"/>
<path d="M92.8126 280.639H88.1236C87.8211 280.639 87.6698 280.791 87.5186 281.093L87.3673 281.244C87.2161 281.396 87.0648 281.698 87.2161 281.849L88.4261 286.537C88.4261 286.688 88.5774 286.839 88.7286 286.99C88.8799 287.142 89.0311 287.293 89.1824 287.444C89.3337 287.595 89.4849 287.747 89.6362 287.747H94.4764C94.7789 287.747 94.9302 287.595 95.0815 287.444L95.2327 287.293C95.384 287.142 95.384 286.839 95.384 286.688L94.1739 281.849C94.1739 281.698 94.0227 281.547 93.8714 281.395C93.7201 281.244 93.5689 281.093 93.4176 280.942C93.1151 280.791 92.9639 280.639 92.8126 280.639Z" fill="#19185E"/>
<path d="M84.1906 280.639H79.5016C79.1991 280.639 79.0479 280.791 78.8966 281.093L78.7454 281.244C78.5941 281.396 78.4428 281.698 78.5941 281.849L79.8042 286.537C79.8042 286.688 79.9554 286.839 80.1067 286.99C80.2579 287.142 80.4092 287.293 80.5604 287.444C80.7117 287.595 80.863 287.747 81.0142 287.747H85.8545C86.157 287.747 86.3083 287.595 86.4595 287.444C86.4595 287.293 86.6108 287.293 86.6108 287.142C86.762 286.991 86.9133 286.688 86.762 286.537L85.552 281.849C85.552 281.698 85.4007 281.547 85.2494 281.395C85.0982 281.244 84.9469 281.093 84.7957 280.942C84.6444 280.791 84.4932 280.639 84.1906 280.639Z" fill="#19185E"/>
<path d="M97.6528 290.317L98.8629 295.61C98.8629 295.912 99.1654 296.215 99.4679 296.215H105.064C105.518 296.215 105.821 295.761 105.67 295.308L104.308 289.712C104.308 289.41 104.006 289.108 103.703 289.108H98.4091C98.1066 289.108 97.9554 289.259 97.8041 289.41C97.8041 289.561 97.6528 289.561 97.6528 289.712C97.6528 289.864 97.5016 290.166 97.6528 290.317Z" fill="#19185E"/>
<path d="M93.4175 273.079L94.6275 278.221C94.6275 278.372 94.7788 278.523 94.93 278.674C95.0813 278.825 95.2326 278.977 95.3838 279.128C95.5351 279.279 95.6863 279.43 95.8376 279.43H100.98C101.434 279.43 101.737 278.977 101.585 278.523L100.224 272.777C100.224 272.474 99.9216 272.172 99.6191 272.172H93.8712C93.5687 272.172 93.2662 272.625 93.4175 273.079Z" fill="#19185E"/>
<path d="M94.93 289.108H90.0897C89.7872 289.108 89.636 289.259 89.4847 289.41C89.4847 289.561 89.3334 289.561 89.3334 289.561C89.1822 289.712 89.0309 290.015 89.1822 290.166L90.5435 295.459C90.5435 295.761 90.846 295.912 91.1485 295.912H96.7451C97.1989 295.912 97.5014 295.459 97.3502 295.005L96.1401 289.864C96.1401 289.712 95.9888 289.561 95.8376 289.41C95.6863 289.259 95.535 289.108 95.3838 289.108C95.2325 289.259 95.0813 289.108 94.93 289.108Z" fill="#19185E"/>
<path d="M95.5351 282L96.5939 286.688C96.5939 286.839 96.7451 286.991 96.8964 287.142C97.0476 287.293 97.1989 287.444 97.3502 287.595C97.5014 287.747 97.6527 287.898 97.9552 287.898H103.098C103.552 287.898 103.854 287.444 103.703 286.991L102.342 281.244C102.342 280.942 102.039 280.639 101.737 280.639H96.4426C96.1401 280.639 95.9888 280.791 95.8376 281.093C95.8376 281.244 95.6863 281.244 95.6863 281.395C95.5351 281.547 95.5351 281.698 95.5351 282Z" fill="#19185E"/>
<path d="M86.3083 289.108H81.468C81.1655 289.108 81.0142 289.259 80.8629 289.41C80.8629 289.561 80.7117 289.561 80.7117 289.561C80.5604 289.713 80.4092 290.015 80.5604 290.166L81.9218 295.459C82.073 295.761 82.2243 295.912 82.5268 295.912H88.1234C88.5772 295.912 88.8797 295.459 88.7284 295.005L87.5184 289.864C87.5184 289.713 87.3671 289.561 87.2159 289.41C87.0646 289.259 86.9133 289.108 86.7621 288.956C86.7621 289.259 86.6108 289.108 86.3083 289.108Z" fill="#19185E"/>
<path d="M77.8376 289.108H73.1486C72.8461 289.108 72.6949 289.259 72.5436 289.41C72.5436 289.561 72.3924 289.561 72.3924 289.712C72.2411 289.864 72.0898 290.166 72.2411 290.317L73.6024 295.61C73.7537 295.912 73.9049 296.064 74.2074 296.064H79.804C80.2578 296.064 80.5603 295.61 80.409 295.156L79.199 290.015C79.199 289.864 79.0477 289.712 78.8965 289.561C78.7452 289.41 78.5939 289.259 78.4427 289.108C78.2914 289.259 78.1402 289.108 77.8376 289.108Z" fill="#19185E"/>
<path d="M97.0475 302.717H76.7789V303.625H97.0475V302.717Z" fill="#363B9D"/>
<path d="M682.337 313H-307.498C-310.241 313 -312.5 310.883 -312.5 308.312C-312.5 305.742 -310.241 303.624 -307.498 303.624H682.498C685.241 303.624 687.5 305.742 687.5 308.312C687.339 310.883 685.08 313 682.337 313Z" fill="#00A056"/>
<path d="M-7.47209 124.735C-7.47209 124.432 -7.47209 124.13 -7.47209 123.827C-7.47209 118.686 -3.23686 114.452 1.90593 114.452C4.9311 114.452 7.65377 115.964 9.31761 118.232C9.31761 118.081 9.31761 117.93 9.31761 117.779C9.31761 109.311 16.2755 102.355 24.746 102.355C29.1325 102.355 33.2164 104.169 35.9391 107.194C37.7542 96.7595 46.8297 88.8962 57.7203 88.8962C69.821 88.8962 79.6528 98.5741 79.8041 110.672C82.2242 108.101 85.7031 106.437 89.6359 106.437C97.0475 106.437 103.098 112.486 103.098 119.896C103.098 120.198 103.098 120.501 103.098 120.803C104.459 118.988 106.728 117.93 109.148 117.93C113.232 117.93 116.56 120.954 116.862 125.037H-7.47209V124.735Z" fill="#E4F8EE"/>
<path d="M69.3238 51.6967C71.8952 51.6967 74.3153 53.0577 75.6766 55.0235C76.8867 49.4285 81.727 45.3456 87.626 45.3456C93.6764 45.3456 98.8192 49.8821 99.5755 55.6284C100.937 54.5699 102.601 53.965 104.416 53.965C107.895 53.965 110.92 56.2333 111.827 59.4088H77.0379H75.5254H61.4583C61.6096 55.1747 65.0885 51.6967 69.3238 51.6967Z" fill="#E4F8EE"/>
<path d="M277.197 92.8279C275.987 89.1987 272.659 86.628 268.575 86.628C266.457 86.628 264.491 87.384 262.978 88.5938C261.919 81.9402 256.172 76.7989 249.214 76.7989C241.5 76.7989 235.298 82.9988 235.298 90.7108C235.298 91.4669 235.298 92.223 235.449 92.9791H277.197V92.8279Z" fill="#E4F8EE"/>
<path d="M205.5 92.8279C207.164 88.2913 211.399 84.9646 216.542 84.9646C221.685 84.9646 225.92 88.2913 227.584 92.8279H205.5Z" fill="#E4F8EE"/>
<path d="M520.028 70.816C519.423 66.2795 515.49 62.8015 510.801 62.8015C508.683 62.8015 506.868 63.4063 505.356 64.6161C504.902 56.2991 497.944 49.7968 489.625 49.7968C485.843 49.7968 482.364 51.1578 479.642 53.426C479.037 39.0604 467.238 27.5679 452.718 27.5679C446.819 27.5679 441.222 29.5337 436.835 32.7093C433.054 14.2608 416.718 0.500015 397.206 0.500015C374.82 0.500015 356.668 18.6461 356.668 41.0262C356.668 41.3286 356.668 41.4799 356.668 41.7823C352.887 38.9092 348.198 37.2458 343.206 37.2458C330.955 37.2458 320.971 47.2261 320.971 59.4747C320.971 59.7771 320.971 60.2308 320.971 60.5332C318.854 58.5674 315.98 57.5089 312.955 57.5089C309.778 57.5089 306.753 58.7186 304.636 60.8356C302.972 53.1236 296.165 47.3773 287.997 47.3773C278.619 47.3773 271.056 54.9382 270.905 64.1624C269.544 63.4063 268.182 62.9527 266.518 62.9527C261.829 62.9527 258.048 66.4307 257.292 70.9672H520.028V70.816Z" fill="#E4F8EE"/>
<path d="M-5.19126 63C12.0676 63 26.0549 49.0089 26.0502 31.75C26.0455 14.4911 12.0505 0.5 -5.20836 0.5C-22.4673 0.5 -36.4545 14.4911 -36.4498 31.75C-36.4451 49.0089 -22.4502 63 -5.19126 63Z" fill="#F4B856"/>
</svg>
