<svg width="313" height="313" viewBox="0 0 313 313" fill="none" xmlns="http://www.w3.org/2000/svg">
<path d="M300.234 97.6668L154.723 303.776H472.517L326.855 97.6668C320.2 88.2913 306.889 88.2913 300.234 97.6668Z" fill="#00C853"/>
<path d="M387.056 254.782L316.721 238.601C311.427 237.392 308.553 231.494 310.519 226.353L320.2 200.797C322.469 194.748 319.444 187.792 313.393 185.978L284.957 177.056C280.57 175.695 277.999 170.856 279.209 166.168L310.066 91.0134C306.284 91.9207 302.805 94.0377 300.234 97.6669L154.723 303.776H472.517L398.552 273.381C396.132 272.323 394.468 269.903 394.468 267.03V264.459C394.317 259.772 391.291 255.84 387.056 254.782Z" fill="#00B149"/>
<path d="M162.74 177.358L68.8083 303.776H273.764L179.983 177.358C175.597 171.612 166.975 171.612 162.74 177.358Z" fill="#00C853"/>
<path d="M65.8566 247.413L17.1619 311.865H123.412L74.7957 247.413C72.5217 244.484 68.0522 244.484 65.8566 247.413Z" fill="#00C853"/>
<path d="M218.705 273.684L173.328 263.703C170 262.947 168.034 259.318 169.395 256.142L175.597 240.416C177.109 236.635 175.143 232.553 171.21 231.343L159.866 227.865C156.992 226.957 155.479 224.084 156.236 221.211L169.093 173.124C166.672 173.578 164.404 174.939 162.74 177.207L68.8082 303.625H273.763L225.966 285.025C224.302 284.42 223.394 282.908 223.394 281.093V279.43C223.394 276.708 221.428 274.288 218.705 273.684Z" fill="#00B149"/>
<path d="M94.8698 296.573L71.3458 291.476C69.6207 291.09 68.6013 289.237 69.3071 287.615L72.522 279.583C73.3061 277.652 72.2868 275.567 70.248 274.949L64.367 273.173C62.8772 272.71 62.093 271.242 62.4851 269.775L69.1502 245.216C67.8956 245.448 66.7194 246.143 65.8569 247.301L17.1622 311.865H123.412L98.6336 302.365C97.7711 302.057 97.3006 301.284 97.3006 300.358V299.508C97.3006 298.118 96.2812 296.882 94.8698 296.573Z" fill="#00B149"/>
<path d="M91.9508 303.776H86.0517L86.6568 165.714H91.3458L91.9508 303.776Z" fill="#19185E"/>
<path d="M87.2618 162.237V125.944C87.2618 125.34 87.8668 124.735 88.4718 124.735H89.2281C89.9844 124.735 90.4382 125.188 90.7407 125.793L96.4885 149.081C96.9423 150.895 96.4885 153.012 95.2785 154.373L91.3458 158.91V161.329L87.2618 162.237Z" fill="#F27512"/>
<path d="M91.4972 162.539L124.32 177.056C124.925 177.358 125.228 177.963 124.925 178.568L124.623 179.173C124.32 179.778 123.715 180.08 122.959 180.08L99.3626 175.997C97.3963 175.695 95.8837 174.485 94.9761 172.67L92.4047 167.227L89.8333 166.017L91.4972 162.539Z" fill="#F27512"/>
<path d="M88.1693 166.622L57.9177 184.617C57.3126 184.919 56.5563 184.768 56.2538 184.163L55.9513 183.558C55.6488 182.953 55.6488 182.197 56.2538 181.744L73.346 164.807C74.7073 163.446 76.6737 162.841 78.6401 163.144L84.6904 164.202L86.9593 162.841L88.1693 166.622Z" fill="#F27512"/>
<path d="M92.7072 163.295C92.7072 165.11 91.1946 166.773 89.2283 166.773C87.2619 166.773 85.7493 165.261 85.7493 163.295C85.7493 161.48 87.2619 159.817 89.2283 159.817C91.1946 159.817 92.7072 161.48 92.7072 163.295Z" fill="#19185E"/>
<path d="M91.0434 163.295C91.0434 164.203 90.2871 164.959 89.3795 164.959C88.472 164.959 87.7157 164.203 87.7157 163.295C87.7157 162.388 88.472 161.632 89.3795 161.632C90.2871 161.632 91.0434 162.388 91.0434 163.295Z" fill="#E1E3F7"/>
<path d="M285.108 303.776H228.083L231.26 222.421C231.26 221.362 232.167 220.455 233.226 220.455H279.814C280.872 220.455 281.78 221.362 281.78 222.421L285.108 303.776Z" fill="white"/>
<path d="M279.965 213.197H233.377V220.606H279.965V213.197Z" fill="#F4B856"/>
<path d="M283.142 213.651H230.201C228.84 213.651 228.386 211.836 229.596 211.231L255.613 197.622C256.369 197.319 257.125 197.319 257.73 197.622L283.747 211.231C284.957 211.836 284.503 213.651 283.142 213.651Z" fill="#DD5F0A"/>
<path d="M273.158 213.65H240.033L256.066 197.47C256.369 197.168 256.823 197.168 257.125 197.47L273.158 213.65Z" fill="#F27512"/>
<path d="M260.453 213.65C260.453 215.767 258.789 217.431 256.671 217.431C254.554 217.431 252.89 215.767 252.89 213.65C252.89 211.533 254.554 209.87 256.671 209.87C258.789 209.87 260.453 211.533 260.453 213.65Z" fill="#144F33"/>
<path d="M243.058 195.051L238.067 200.041C237.008 201.099 235.344 201.099 234.436 200.041L206 171.612C204.941 170.553 204.941 168.89 206 167.983L210.991 162.993C212.05 161.934 213.714 161.934 214.622 162.993L243.058 191.421C243.966 192.48 243.966 194.143 243.058 195.051Z" fill="#144F33"/>
<path d="M239.318 194.962L237.82 196.459L255.575 214.209L257.072 212.712L239.318 194.962Z" fill="#144F33"/>
<path d="M270.134 232.25L275.125 227.26C276.184 226.201 277.848 226.201 278.755 227.26L307.192 255.689C308.251 256.747 308.251 258.411 307.192 259.318L302.2 264.308C301.142 265.367 299.478 265.367 298.57 264.308L270.134 235.879C269.226 234.972 269.226 233.308 270.134 232.25Z" fill="#144F33"/>
<path d="M273.829 232.426L275.327 230.929L257.572 213.179L256.075 214.676L273.829 232.426Z" fill="#144F33"/>
<path d="M275.276 200.192L270.284 195.202C269.226 194.143 269.226 192.48 270.284 191.573L298.721 163.144C299.78 162.085 301.444 162.085 302.351 163.144L307.343 168.134C308.402 169.193 308.402 170.856 307.343 171.763L278.906 200.192C277.847 201.099 276.184 201.099 275.276 200.192Z" fill="#144F33"/>
<path d="M275.374 196.459L273.876 194.962L256.122 212.712L257.619 214.209L275.374 196.459Z" fill="#144F33"/>
<path d="M238.066 227.26L243.058 232.25C244.117 233.308 244.117 234.972 243.058 235.879L214.621 264.308C213.563 265.367 211.899 265.367 210.991 264.308L206 259.318C204.941 258.259 204.941 256.596 206 255.689L234.436 227.26C235.344 226.201 237.008 226.201 238.066 227.26Z" fill="#144F33"/>
<path d="M237.898 230.961L239.396 232.458L257.15 214.709L255.653 213.212L237.898 230.961Z" fill="#144F33"/>
<path d="M259.545 238.45V231.343C259.545 229.679 258.184 228.47 256.672 228.47C255.008 228.47 253.798 229.831 253.798 231.343V238.45H259.545Z" fill="#144F33"/>
<path d="M259.545 274.288V267.181C259.545 265.518 258.184 264.308 256.671 264.308C255.007 264.308 253.797 265.669 253.797 267.181V274.288H259.545Z" fill="#144F33"/>
<path d="M51.8476 294.4H49.7299V303.775H51.8476V294.4Z" fill="#363B9D"/>
<path d="M69.8471 298.332H36.2677C35.2089 298.332 33.9988 297.424 33.8475 296.366L27.646 272.171C27.3434 271.113 28.0997 270.205 29.1585 270.205H63.1917C64.2505 270.205 65.4606 271.113 65.6118 272.171L71.3596 296.366C71.6622 297.424 70.9059 298.332 69.8471 298.332Z" fill="#363B9D"/>
<path d="M71.0574 298.332H37.478C36.4192 298.332 35.2091 297.424 35.0579 296.366L28.8563 272.171C28.5538 271.113 29.3101 270.205 30.3689 270.205H64.2508C65.3096 270.205 66.5196 271.113 66.6709 272.171L72.4188 296.366C72.8725 297.424 72.1162 298.332 71.0574 298.332Z" fill="white"/>
<path d="M42.9235 279.279H47.7638C48.0663 279.279 48.2175 279.128 48.3688 278.976L48.52 278.825C48.6713 278.674 48.8226 278.372 48.6713 278.22L47.31 272.777C47.31 272.474 47.0075 272.323 46.7049 272.323H40.9571C40.5033 272.323 40.2008 272.777 40.3521 273.23L41.7134 278.523C41.7134 278.674 41.8647 278.825 42.0159 278.976C42.1672 279.128 42.3184 279.128 42.4697 279.279C42.4697 279.279 42.621 279.279 42.9235 279.279Z" fill="#19185E"/>
<path d="M51.3937 279.279H56.3852C56.6878 279.279 56.839 279.128 56.9903 278.976C56.9903 278.976 56.9903 278.825 57.1415 278.825C57.2928 278.674 57.2928 278.372 57.2928 278.22L55.9315 272.777C55.9315 272.474 55.6289 272.323 55.3264 272.323H49.5786C49.1248 272.323 48.8223 272.777 48.9735 273.23L50.1836 278.523C50.1836 278.674 50.3349 278.825 50.4861 278.976C50.6374 279.128 50.7887 279.128 50.9399 279.279C50.9399 279.279 51.0912 279.279 51.3937 279.279Z" fill="#19185E"/>
<path d="M34.3015 279.279H39.1418C39.4443 279.279 39.5956 279.128 39.7469 278.977L39.8981 278.826C40.0494 278.675 40.2006 278.372 40.0494 278.221L38.688 272.777C38.5368 272.475 38.3855 272.323 38.083 272.323H32.3351C31.8814 272.323 31.5789 272.777 31.7301 273.231L33.0914 278.523C33.0914 278.675 33.2427 278.826 33.3939 278.977C33.5452 279.128 33.6965 279.128 33.8477 279.279C33.999 279.279 34.1503 279.279 34.3015 279.279Z" fill="#19185E"/>
<path d="M39.5956 280.639H34.9065C34.604 280.639 34.4528 280.79 34.3015 281.093C34.3015 281.244 34.1502 281.244 34.1502 281.244C33.999 281.395 33.8477 281.698 33.999 281.849L35.2091 286.537C35.2091 286.688 35.3603 286.839 35.5116 286.99C35.6628 287.141 35.8141 287.293 35.9654 287.444C36.1166 287.595 36.2679 287.746 36.4191 287.746H41.1081C41.4107 287.746 41.5619 287.595 41.7132 287.444C41.7132 287.293 41.8644 287.293 41.8644 287.293C42.0157 287.141 42.167 286.839 42.0157 286.688L41.1081 281.849C41.1081 281.698 40.9569 281.546 40.8056 281.395C40.6544 281.244 40.5031 281.093 40.3518 280.942C40.0493 280.79 39.8981 280.639 39.5956 280.639Z" fill="#19185E"/>
<path d="M56.6879 280.639H51.9989C51.6964 280.639 51.5452 280.79 51.3939 281.093L51.2426 281.244C51.0914 281.395 50.9401 281.698 51.0914 281.849L52.3014 286.537C52.3014 286.688 52.4527 286.839 52.604 286.99C52.7552 287.141 52.9065 287.293 53.0577 287.444C53.209 287.595 53.3603 287.746 53.5115 287.746H58.3518C58.6543 287.746 58.8056 287.595 58.9568 287.444L59.1081 287.293C59.2593 287.141 59.2593 286.839 59.2593 286.688L58.0493 281.849C58.0493 281.698 57.898 281.546 57.7467 281.395C57.5955 281.244 57.4442 281.093 57.293 280.942C56.9904 280.79 56.8392 280.639 56.6879 280.639Z" fill="#19185E"/>
<path d="M48.066 280.639H43.3769C43.0744 280.639 42.9232 280.79 42.7719 281.093L42.6207 281.244C42.4694 281.395 42.3181 281.698 42.4694 281.849L43.6795 286.537C43.6795 286.688 43.8307 286.839 43.982 286.99C44.1332 287.141 44.2845 287.293 44.4358 287.444C44.587 287.595 44.7383 287.746 44.8895 287.746H49.7298C50.0323 287.746 50.1836 287.595 50.3348 287.444C50.3348 287.293 50.4861 287.293 50.4861 287.141C50.6373 286.99 50.7886 286.688 50.6373 286.537L49.4273 281.849C49.4273 281.698 49.276 281.546 49.1248 281.395C48.9735 281.244 48.8222 281.093 48.671 280.942C48.5197 280.79 48.3685 280.639 48.066 280.639Z" fill="#19185E"/>
<path d="M61.5281 290.317L62.7382 295.61C62.7382 295.912 63.0407 296.215 63.3432 296.215H68.9398C69.3936 296.215 69.6961 295.761 69.5448 295.307L68.1835 289.712C68.1835 289.41 67.881 289.107 67.5785 289.107H62.2844C61.9819 289.107 61.8307 289.259 61.6794 289.41C61.6794 289.561 61.5281 289.561 61.5281 289.712C61.5281 289.863 61.3769 290.166 61.5281 290.317Z" fill="#19185E"/>
<path d="M57.2928 273.079L58.5028 278.22C58.5028 278.371 58.6541 278.523 58.8053 278.674C58.9566 278.825 59.1079 278.976 59.2591 279.128C59.4104 279.279 59.5617 279.43 59.7129 279.43H64.8557C65.3095 279.43 65.612 278.976 65.4607 278.523L64.0994 272.776C64.0994 272.474 63.7969 272.172 63.4944 272.172H57.7465C57.444 272.172 57.1415 272.625 57.2928 273.079Z" fill="#19185E"/>
<path d="M58.8053 289.107H53.965C53.6625 289.107 53.5113 289.259 53.36 289.41C53.36 289.561 53.2087 289.561 53.2087 289.561C53.0575 289.712 52.9062 290.015 53.0575 290.166L54.4188 295.458C54.4188 295.761 54.7213 295.912 55.0238 295.912H60.6204C61.0742 295.912 61.3767 295.458 61.2255 295.005L60.0154 289.863C60.0154 289.712 59.8641 289.561 59.7129 289.41C59.5616 289.259 59.4104 289.107 59.2591 289.107C59.1078 289.259 58.9566 289.107 58.8053 289.107Z" fill="#19185E"/>
<path d="M59.4104 282L60.4692 286.688C60.4692 286.839 60.6205 286.99 60.7717 287.141C60.923 287.293 61.0742 287.444 61.2255 287.595C61.3768 287.746 61.528 287.898 61.8305 287.898H66.9734C67.4271 287.898 67.7296 287.444 67.5784 286.99L66.2171 281.244C66.2171 280.942 65.9145 280.639 65.612 280.639H60.3179C60.0154 280.639 59.8642 280.79 59.7129 281.093C59.7129 281.244 59.5616 281.244 59.5616 281.395C59.4104 281.546 59.4104 281.698 59.4104 282Z" fill="#19185E"/>
<path d="M50.1836 289.107H45.3433C45.0408 289.107 44.8895 289.259 44.7383 289.41C44.7383 289.561 44.587 289.561 44.587 289.561C44.4358 289.712 44.2845 290.015 44.4358 290.166L45.7971 295.459C45.9484 295.761 46.0996 295.912 46.4021 295.912H51.9987C52.4525 295.912 52.755 295.459 52.6038 295.005L51.3937 289.863C51.3937 289.712 51.2424 289.561 51.0912 289.41C50.9399 289.259 50.7886 289.107 50.6374 288.956C50.6374 289.259 50.4861 289.107 50.1836 289.107Z" fill="#19185E"/>
<path d="M41.713 289.107H37.024C36.7215 289.107 36.5702 289.259 36.4189 289.41C36.4189 289.561 36.2677 289.561 36.2677 289.712C36.1164 289.863 35.9652 290.166 36.1164 290.317L37.4778 295.61C37.629 295.912 37.7803 296.063 38.0828 296.063H43.6793C44.1331 296.063 44.4356 295.61 44.2844 295.156L43.0743 290.015C43.0743 289.863 42.9231 289.712 42.7718 289.561C42.6205 289.41 42.4693 289.259 42.318 289.107C42.1668 289.259 42.0155 289.107 41.713 289.107Z" fill="#19185E"/>
<path d="M60.9229 302.717H40.6542V303.624H60.9229V302.717Z" fill="#363B9D"/>
<path d="M55.4978 303.776C55.4978 303.776 65.4808 296.971 78.9428 296.971C92.4048 296.971 105.413 303.776 105.413 303.776H55.4978Z" fill="#00C853"/>
<path d="M124.623 296.064C120.388 296.064 117.06 292.737 117.06 288.503V277.615C117.06 277.313 117.362 277.01 117.665 277.01C117.967 277.01 118.27 277.313 118.27 277.615V288.503C118.27 291.981 121.144 295.005 124.774 295.005C125.077 295.005 125.379 295.308 125.379 295.61C125.228 295.912 124.925 296.064 124.623 296.064Z" fill="#144F33"/>
<path d="M124.623 290.771C124.32 290.771 124.018 290.469 124.018 290.166C124.018 289.864 124.32 289.561 124.623 289.561C128.102 289.561 131.127 286.688 131.127 283.059V272.171C131.127 271.869 131.429 271.566 131.732 271.566C132.034 271.566 132.337 271.869 132.337 272.171V283.059C132.186 287.444 128.707 290.771 124.623 290.771Z" fill="#144F33"/>
<path d="M124.623 304.532C124.32 304.532 124.018 304.229 124.018 303.927V273.381C124.018 273.079 124.32 272.776 124.623 272.776C124.925 272.776 125.228 273.079 125.228 273.381V303.927C125.228 304.381 124.925 304.532 124.623 304.532Z" fill="#144F33"/>
<path d="M146.552 273.051C153.999 260.961 150.234 245.126 138.141 237.68C126.049 230.235 110.209 234 102.761 246.089C95.3141 258.178 99.0798 274.014 111.172 281.459C123.265 288.904 139.105 285.14 146.552 273.051Z" fill="#00C853"/>
<path d="M124.623 274.742C124.32 274.742 124.018 274.44 124.018 274.137V250.85C124.018 250.547 124.32 250.245 124.623 250.245C124.925 250.245 125.228 250.547 125.228 250.85V274.137C125.228 274.44 124.925 274.742 124.623 274.742Z" fill="#144F33"/>
<path d="M124.623 267.937C124.32 267.937 124.018 267.635 124.018 267.332C124.018 267.03 124.32 266.728 124.623 266.728C128.102 266.728 131.127 263.854 131.127 260.225C131.127 259.923 131.429 259.62 131.732 259.62C132.034 259.62 132.337 259.923 132.337 260.225C132.186 264.459 128.707 267.937 124.623 267.937Z" fill="#144F33"/>
<path d="M124.623 257.05C121.144 257.05 118.421 254.328 118.421 250.85C118.421 250.547 118.723 250.245 119.026 250.245C119.329 250.245 119.631 250.547 119.631 250.85C119.631 253.723 121.9 255.991 124.774 255.991C125.076 255.991 125.379 256.294 125.379 256.596C125.228 256.747 124.925 257.05 124.623 257.05Z" fill="#144F33"/>
<path d="M163.345 288.805C159.11 288.805 155.782 285.479 155.782 281.244V270.357C155.782 270.054 156.085 269.752 156.387 269.752C156.69 269.752 156.992 270.054 156.992 270.357V281.244C156.992 284.722 159.866 287.747 163.496 287.747C163.799 287.747 164.101 288.049 164.101 288.352C163.95 288.654 163.648 288.805 163.345 288.805Z" fill="#144F33"/>
<path d="M163.345 291.225C163.042 291.225 162.74 290.922 162.74 290.62C162.74 290.317 163.042 290.015 163.345 290.015C166.824 290.015 169.849 287.142 169.849 283.513V272.625C169.849 272.323 170.152 272.02 170.454 272.02C170.757 272.02 171.059 272.323 171.059 272.625V283.513C170.908 287.898 167.429 291.225 163.345 291.225Z" fill="#144F33"/>
<path d="M163.345 304.532C163.042 304.532 162.74 304.229 162.74 303.927V273.381C162.74 273.079 163.042 272.776 163.345 272.776C163.648 272.776 163.95 273.079 163.95 273.381V303.927C163.95 304.381 163.648 304.532 163.345 304.532Z" fill="#144F33"/>
<path d="M188.908 259.62C188.908 273.835 177.412 285.327 163.194 285.327C148.975 285.327 137.48 273.835 137.48 259.62C137.48 245.406 148.975 207.45 163.194 207.45C177.412 207.45 188.908 245.406 188.908 259.62Z" fill="#039B41"/>
<path d="M163.345 274.742C163.042 274.742 162.74 274.44 162.74 274.137V223.782C162.74 223.48 163.042 223.177 163.345 223.177C163.648 223.177 163.95 223.48 163.95 223.782V274.137C163.95 274.44 163.648 274.742 163.345 274.742Z" fill="#144F33"/>
<path d="M163.345 267.937C163.042 267.937 162.74 267.635 162.74 267.332C162.74 267.03 163.042 266.728 163.345 266.728C168.942 266.728 173.631 262.191 173.631 256.445C173.631 256.142 173.933 255.84 174.236 255.84C174.538 255.84 174.841 256.142 174.841 256.445C174.689 262.796 169.547 267.937 163.345 267.937Z" fill="#144F33"/>
<path d="M163.345 239.206C159.866 239.206 157.144 236.484 157.144 233.006C157.144 232.704 157.446 232.401 157.749 232.401C158.051 232.401 158.354 232.704 158.354 233.006C158.354 235.879 160.622 238.148 163.496 238.148C163.799 238.148 164.101 238.45 164.101 238.752C164.101 239.055 163.648 239.206 163.345 239.206Z" fill="#144F33"/>
<path d="M449.375 303.776C425.778 295.61 404.148 299.844 378.586 294.551C354.535 289.259 340.015 285.327 318.687 285.327C286.015 285.327 271.646 291.981 244.873 303.776C244.873 303.776 442.87 303.927 449.375 303.776Z" fill="#00C853"/>
<path d="M995.337 313H5.50161C2.75879 313 0.5 310.883 0.5 308.312C0.5 305.742 2.75879 303.624 5.50161 303.624H995.498C998.241 303.624 1000.5 305.742 1000.5 308.312C1000.34 310.883 998.08 313 995.337 313Z" fill="#00A056"/>
<path d="M305.528 124.735C305.528 124.432 305.528 124.13 305.528 123.827C305.528 118.686 309.763 114.452 314.906 114.452C317.931 114.452 320.654 115.964 322.318 118.232C322.318 118.081 322.318 117.93 322.318 117.779C322.318 109.311 329.275 102.355 337.746 102.355C342.132 102.355 346.216 104.169 348.939 107.194C350.754 96.7595 359.83 88.8962 370.72 88.8962C382.821 88.8962 392.653 98.5741 392.804 110.672C395.224 108.101 398.703 106.437 402.636 106.437C410.048 106.437 416.098 112.486 416.098 119.896C416.098 120.198 416.098 120.501 416.098 120.803C417.459 118.988 419.728 117.93 422.148 117.93C426.232 117.93 429.56 120.954 429.862 125.037H305.528V124.735Z" fill="#E4F8EE"/>
<path d="M133.365 77.5182C135.181 77.5182 136.844 78.1231 138.206 79.1816C139.567 74.3427 143.954 70.8647 149.096 70.8647C149.853 70.8647 150.609 71.0159 151.365 71.1671C151.97 59.9771 161.197 51.0552 172.693 51.0552C178.289 51.0552 183.281 53.1723 187.062 56.6503C190.39 44.0993 201.886 34.875 215.499 34.875C231.835 34.875 244.994 48.0309 244.994 64.3624C244.994 64.816 244.994 65.2697 244.994 65.7233C247.868 63.3038 251.498 61.7917 255.431 61.7917C264.204 61.7917 271.464 68.8989 271.464 77.8207C271.464 77.9719 271.464 77.9719 271.464 78.1231C272.069 77.9719 272.826 77.8207 273.582 77.8207C277.817 77.8207 281.145 80.9962 281.599 85.0791H125.5C125.803 80.845 129.281 77.5182 133.365 77.5182Z" fill="#E4F8EE"/>
<path d="M261.49 97.4761C264.062 97.4761 266.482 98.8371 267.843 100.803C269.053 95.2079 273.894 91.125 279.793 91.125C285.843 91.125 290.986 95.6615 291.742 101.408C293.103 100.349 294.767 99.7444 296.582 99.7444C300.061 99.7444 303.086 102.013 303.994 105.188H269.205H267.692H253.625C253.776 100.954 257.255 97.4761 261.49 97.4761Z" fill="#E4F8EE"/>
<path d="M307.809 63C325.068 63 339.055 49.0089 339.05 31.75C339.046 14.4911 325.051 0.5 307.792 0.5C290.533 0.5 276.546 14.4911 276.55 31.75C276.555 49.0089 290.55 63 307.809 63Z" fill="#F4B856"/>
</svg>
